<svg width="24" height="24" viewBox="0 0 24 24" fill="none" xmlns="http://www.w3.org/2000/svg">
<path fill-rule="evenodd" clip-rule="evenodd" d="M20.536 3.464C19.07 2 16.714 2 12 2C7.286 2 4.929 2 3.464 3.464C2 4.93 2 7.286 2 12C2 16.714 2 19.071 3.464 20.535C4.93 22 7.286 22 12 22C16.714 22 19.071 22 20.535 20.535C22 19.072 22 16.714 22 12C22 7.286 22.001 4.929 20.536 3.464ZM14.03 8.47C14.1705 8.61063 14.2493 8.80125 14.2493 9C14.2493 9.19875 14.1705 9.38937 14.03 9.53L11.56 12L14.03 14.47C14.1037 14.5387 14.1628 14.6215 14.2038 14.7135C14.2448 14.8055 14.2668 14.9048 14.2686 15.0055C14.2704 15.1062 14.2518 15.2062 14.2141 15.2996C14.1764 15.393 14.1203 15.4778 14.049 15.549C13.9778 15.6203 13.893 15.6764 13.7996 15.7141C13.7062 15.7518 13.6062 15.7704 13.5055 15.7686C13.4048 15.7668 13.3055 15.7448 13.2135 15.7038C13.1215 15.6628 13.0387 15.6037 12.97 15.53L9.97 12.53C9.82955 12.3894 9.75066 12.1988 9.75066 12C9.75066 11.8012 9.82955 11.6106 9.97 11.47L12.97 8.47C13.1106 8.32955 13.3012 8.25066 13.5 8.25066C13.6988 8.25066 13.8894 8.32955 14.03 8.47Z" fill="#144A5D"/>
</svg>
