<svg width="24" height="24" viewBox="0 0 24 24" fill="none" xmlns="http://www.w3.org/2000/svg">
<path d="M20 18.0001C20 20.2101 16.418 22.0001 12 22.0001C7.582 22.0001 4 20.2101 4 18.0001V13.9741C4.502 14.5911 5.215 15.1031 6.008 15.4991C7.58 16.2851 9.7 16.7501 12 16.7501C14.3 16.7501 16.42 16.2851 17.992 15.5001C18.785 15.1031 19.498 14.5901 20 13.9741V18.0001Z" fill="#144A5D"/>
<path d="M12 10.7501C14.3 10.7501 16.42 10.2851 17.992 9.50012C18.785 9.10312 19.498 8.59012 20 7.97412V12.0001C20 12.5001 18.214 13.5911 17.321 14.1581C15.998 14.8191 14.118 15.2501 12 15.2501C9.882 15.2501 8.002 14.8201 6.679 14.1581C5.5 13.5681 4 12.5001 4 12.0001V7.97412C4.502 8.59112 5.215 9.10312 6.008 9.49912C7.58 10.2851 9.7 10.7501 12 10.7501Z" fill="#144A5D"/>
<path d="M17.3212 8.158C15.9982 8.819 14.1182 9.25 12.0002 9.25C9.88218 9.25 8.00218 8.82 6.67918 8.158C6.16418 7.956 5.00618 7.315 4.20218 6.279C4.13377 6.19228 4.08406 6.09233 4.05618 5.98546C4.0283 5.87858 4.02285 5.76709 4.04018 5.658C4.06318 5.51 4.09518 5.357 4.13618 5.262C4.82818 3.406 8.08618 2 12.0002 2C15.9142 2 19.1722 3.406 19.8642 5.262C19.9052 5.357 19.9372 5.51 19.9602 5.658C19.9775 5.76709 19.9721 5.87858 19.9442 5.98546C19.9163 6.09233 19.8666 6.19228 19.7982 6.279C18.9942 7.315 17.8362 7.956 17.3212 8.158Z" fill="#144A5D"/>
</svg>
