<svg width="14" height="14" viewBox="0 0 14 14" fill="none" xmlns="http://www.w3.org/2000/svg">
<path fill-rule="evenodd" clip-rule="evenodd" d="M3.95911 0.226163C5.97801 -0.0740857 8.03021 -0.0740857 10.0491 0.226163C10.6833 0.321916 11.2669 0.628067 11.7062 1.09543C12.1454 1.5628 12.4148 2.16425 12.4711 2.80316C12.6881 5.24716 12.7591 7.65916 12.5591 10.1292L12.5581 10.1972C12.5501 10.3418 12.501 10.4811 12.4165 10.5988C12.332 10.7164 12.2156 10.8074 12.0811 10.8612C11.6891 11.0152 11.5211 11.2412 11.5211 11.5692C11.5211 11.8972 11.6891 12.1242 12.0811 12.2792C12.2159 12.3327 12.3325 12.4236 12.4172 12.5413C12.502 12.6589 12.5513 12.7983 12.5594 12.9431C12.5675 13.0878 12.534 13.2319 12.4629 13.3582C12.3918 13.4846 12.286 13.588 12.1581 13.6562C11.8481 13.8202 11.4931 13.9162 11.1281 13.9292C8.61234 14.0242 6.09388 14.0242 3.57811 13.9292C2.92311 13.9042 2.36611 13.6312 1.98111 13.1722C1.60511 12.7232 1.43511 12.1482 1.43511 11.5692L1.43611 11.4932C1.26611 8.58716 1.27911 5.71316 1.53711 2.80316C1.59343 2.1641 1.86298 1.56254 2.30244 1.09516C2.74189 0.627772 3.32473 0.321711 3.95911 0.226163ZM2.93611 11.5252V11.5692C2.93611 11.8562 3.01911 12.0652 3.12611 12.1932C3.22311 12.3092 3.37611 12.4042 3.63311 12.4142C5.82911 12.4972 8.00011 12.5062 10.1901 12.4442C10.075 12.167 10.0178 11.8692 10.0221 11.5692C10.0221 11.2412 10.0831 10.9502 10.1901 10.6952C8.00471 10.6328 5.81784 10.6428 3.63311 10.7252C3.52992 10.7269 3.42804 10.7487 3.33311 10.7892C3.25863 10.8233 3.19193 10.8723 3.13711 10.9332C3.03211 11.0522 2.94711 11.2452 2.93711 11.5132L2.93611 11.5252ZM10.8111 3.77816C10.769 3.69679 10.7052 3.62857 10.6269 3.58095C10.5486 3.53334 10.4588 3.50816 10.3671 3.50816H8.05211C7.9195 3.50816 7.79232 3.56084 7.69855 3.65461C7.60479 3.74838 7.55211 3.87556 7.55211 4.00816C7.55211 4.14077 7.60479 4.26795 7.69855 4.36172C7.79232 4.45548 7.9195 4.50816 8.05211 4.50816H9.40011L7.49911 7.19016C7.44583 7.265 7.41419 7.35306 7.40767 7.44469C7.40116 7.53632 7.42001 7.62798 7.46216 7.7096C7.50432 7.79122 7.56814 7.85965 7.64663 7.90738C7.72512 7.95511 7.81524 7.98029 7.90711 7.98016H10.5121C10.6447 7.98016 10.7719 7.92749 10.8657 7.83372C10.9594 7.73995 11.0121 7.61277 11.0121 7.48016C11.0121 7.34756 10.9594 7.22038 10.8657 7.12661C10.7719 7.03284 10.6447 6.98016 10.5121 6.98016H8.87411L10.7741 4.29616C10.8275 4.22128 10.8592 4.13311 10.8657 4.04137C10.8723 3.94962 10.8534 3.85786 10.8111 3.77616M4.59111 3.69116L4.95911 2.58916L5.32611 3.69116H4.59111ZM5.81411 1.99316L6.49111 4.02316L6.49811 4.04416L6.88011 5.19116C6.92201 5.31701 6.91221 5.45435 6.85285 5.57296C6.7935 5.69158 6.68945 5.78176 6.56361 5.82366C6.43776 5.86557 6.30042 5.85576 6.18181 5.79641C6.06319 5.73705 5.97301 5.63301 5.93111 5.50716L5.66011 4.69116H4.25811L3.98611 5.50716C3.96728 5.57173 3.93561 5.63184 3.89301 5.68388C3.8504 5.73592 3.79774 5.77884 3.73816 5.81005C3.67858 5.84127 3.61332 5.86014 3.54628 5.86555C3.47924 5.87095 3.4118 5.86277 3.34799 5.84151C3.28419 5.82024 3.22533 5.78631 3.17494 5.74177C3.12455 5.69722 3.08366 5.64296 3.05473 5.58224C3.0258 5.52153 3.00941 5.4556 3.00656 5.3884C3.0037 5.3212 3.01443 5.25412 3.03811 5.19116L3.42011 4.04416L3.42711 4.02216L4.10411 1.99216C4.1638 1.81259 4.27851 1.65637 4.43198 1.54566C4.58545 1.43495 4.76988 1.37537 4.95911 1.37537C5.14834 1.37537 5.33277 1.43495 5.48623 1.54566C5.6397 1.65637 5.75442 1.81259 5.81411 1.99216" fill="#E4F8FF"/>
</svg>
