<svg width="24" height="24" viewBox="0 0 24 24" fill="none" xmlns="http://www.w3.org/2000/svg">
<path d="M23.4513 8.30594C23.6519 5.48594 15.7593 0.209371 15.7593 2.59051V5.35909C14.3625 5.34352 12.9655 5.36353 11.5696 5.41909C11.1778 5.42831 10.8029 5.5811 10.5163 5.84846C10.2297 6.11581 10.0512 6.47911 10.0148 6.86937C9.94104 7.80709 9.94104 8.7208 10.0148 9.65851C10.0512 10.0488 10.2297 10.4121 10.5163 10.6794C10.8029 10.9468 11.1778 11.0996 11.5696 11.1088C12.3993 11.1419 13.2176 11.1625 14.0245 11.1705C14.4833 11.1728 14.9227 11.3558 15.2475 11.6799C15.5723 12.004 15.7562 12.4431 15.7593 12.9019V13.9374C15.7593 16.2688 23.6793 11.0317 23.4479 8.30594" fill="#144A5D"/>
<path d="M0.550312 15.7971C0.348027 12.9771 8.2406 7.70057 8.2406 10.08V11.1137C8.2406 12.0686 9.0206 12.8366 9.97374 12.8451C10.7829 12.8543 11.6012 12.8749 12.4286 12.9069C13.2412 12.9394 13.92 13.548 13.9835 14.3571C14.0589 15.2949 14.0589 16.2086 13.9835 17.1463C13.947 17.5365 13.7685 17.8998 13.4819 18.1672C13.1953 18.4345 12.8205 18.5873 12.4286 18.5966C11.0057 18.6531 9.62917 18.6737 8.2406 18.6566V21.4286C8.2406 23.76 0.320598 18.5211 0.550312 15.7971Z" fill="#144A5D"/>
</svg>
