<svg width="24" height="24" viewBox="0 0 24 24" fill="none" xmlns="http://www.w3.org/2000/svg">
<path d="M3.44111 9.95595C2.57455 10.8214 2.06146 11.9786 2.00192 13.2019C1.94238 14.4252 2.34067 15.6268 3.11909 16.5723C3.89751 17.5178 5.00024 18.1395 6.21218 18.316C7.42411 18.4925 8.65834 18.2112 9.67411 17.527L13.9301 21.784C14.0675 21.9245 14.2534 22.0074 14.4498 22.0158C14.6461 22.0242 14.8384 21.9575 14.9873 21.8292C15.1362 21.7009 15.2307 21.5207 15.2515 21.3252C15.2722 21.1297 15.2178 20.9337 15.0991 20.777L15.0241 20.69L10.8071 16.472C11.5783 15.4831 11.9435 14.2374 11.8281 12.9886C11.7128 11.7399 11.1256 10.5822 10.1862 9.75134C9.24691 8.92051 8.02611 8.47913 6.77264 8.51715C5.51917 8.55516 4.32837 9.06972 3.44111 9.95595ZM16.6531 16.501C16.4281 17.788 16.1051 18.957 15.7011 19.955L15.7311 19.983L15.8551 20.123C16.0751 20.418 16.1991 20.747 16.2331 21.075C18.2778 20.1248 19.9426 18.5135 20.9591 16.501H16.6531ZM12.2501 16.5L14.5341 18.787C14.7361 18.187 14.9151 17.519 15.0641 16.795L15.1211 16.501L12.2501 16.5ZM9.31411 11.05C9.6357 11.3621 9.89202 11.735 10.0681 12.1471C10.2443 12.5592 10.3367 13.0022 10.34 13.4503C10.3433 13.8985 10.2575 14.3428 10.0875 14.7575C9.91753 15.1721 9.66679 15.5489 9.34986 15.8657C9.03294 16.1826 8.65617 16.4332 8.24147 16.6031C7.82677 16.773 7.38243 16.8588 6.93429 16.8553C6.48616 16.8519 6.04317 16.7594 5.63112 16.5832C5.21906 16.407 4.84616 16.1506 4.53411 15.829C3.90462 15.1942 3.55225 14.3359 3.55412 13.4419C3.55599 12.5479 3.91195 11.6911 4.54409 11.0589C5.17623 10.4268 6.03306 10.0708 6.92704 10.069C7.82102 10.0671 8.67933 10.4195 9.31411 11.049M15.4501 9.99995H11.7501C12.2592 10.7156 12.6032 11.5352 12.7575 12.3998C12.9117 13.2644 12.8723 14.1524 12.6421 15H15.3521C15.5268 13.5026 15.571 11.9929 15.4841 10.488L15.4501 9.99995ZM16.9571 9.99995C17.0626 11.4719 17.0516 12.9498 16.9241 14.42L16.8671 15H21.5701C22.0765 13.3817 22.1653 11.6617 21.8281 9.99995H16.9571ZM14.8621 2.40695C15.7431 3.75695 16.3981 5.73595 16.7451 8.06095L16.8071 8.50095H21.3971C20.8796 7.11976 20.0638 5.86971 19.0078 4.83988C17.9519 3.81005 16.6818 3.02578 15.2881 2.54295L14.9841 2.44295L14.8621 2.40695ZM12.0261 2.00195C10.7491 2.00195 9.46511 4.38395 8.86811 7.84095C9.33311 8.00095 9.78011 8.22095 10.1991 8.49895L15.2871 8.49995C14.7471 4.69095 13.3821 2.00195 12.0261 2.00195ZM9.18911 2.40695C7.70305 2.84845 6.33955 3.62841 5.20568 4.68559C4.07181 5.74277 3.19843 7.0484 2.65411 8.49995H3.64911C4.75329 7.7675 6.07127 7.42664 7.39211 7.53195C7.71411 5.67395 8.23811 4.06195 8.91911 2.85195L9.08111 2.57695L9.18911 2.40695Z" fill="#E4F8FF"/>
</svg>
