<svg width="18" height="24" viewBox="0 0 18 24" fill="none" xmlns="http://www.w3.org/2000/svg">
<path d="M15.75 0H2.25C1.00781 0 0 1.00781 0 2.25V21.75C0 22.9922 1.00781 24 2.25 24H15.75C16.9922 24 18 22.9922 18 21.75V2.25C18 1.00781 16.9922 0 15.75 0ZM6.75 1.5H11.25C11.6625 1.5 12 1.8375 12 2.25C12 2.6625 11.6625 3 11.25 3H6.75C6.3375 3 6 2.6625 6 2.25C6 1.8375 6.3375 1.5 6.75 1.5ZM9 7.5C10.6547 7.5 12 8.84531 12 10.5C12 12.1547 10.6547 13.5 9 13.5C7.34531 13.5 6 12.1547 6 10.5C6 8.84531 7.34531 7.5 9 7.5ZM14.25 18.6C14.25 19.0969 13.7813 19.5 13.2 19.5H4.8C4.21875 19.5 3.75 19.0969 3.75 18.6V17.7C3.75 16.2094 5.16094 15 6.9 15H7.13437C7.71094 15.2391 8.33906 15.375 9 15.375C9.66094 15.375 10.2938 15.2391 10.8656 15H11.1C12.8391 15 14.25 16.2094 14.25 17.7V18.6Z" fill="#E4F8FF"/>
</svg>
