<svg width="24" height="24" viewBox="0 0 24 24" fill="none" xmlns="http://www.w3.org/2000/svg">
<path d="M2.40039 5.10002C2.40039 4.38394 2.68485 3.69718 3.1912 3.19084C3.69755 2.68449 4.38431 2.40002 5.10039 2.40002H8.10039C8.81648 2.40002 9.50323 2.68449 10.0096 3.19084C10.5159 3.69718 10.8004 4.38394 10.8004 5.10002V8.10002C10.8004 8.81611 10.5159 9.50286 10.0096 10.0092C9.50323 10.5156 8.81648 10.8 8.10039 10.8H5.10039C4.38431 10.8 3.69755 10.5156 3.1912 10.0092C2.68485 9.50286 2.40039 8.81611 2.40039 8.10002V5.10002ZM2.40039 15.9C2.40039 15.1839 2.68485 14.4972 3.1912 13.9908C3.69755 13.4845 4.38431 13.2 5.10039 13.2H8.10039C8.81648 13.2 9.50323 13.4845 10.0096 13.9908C10.5159 14.4972 10.8004 15.1839 10.8004 15.9V18.9C10.8004 19.6161 10.5159 20.3029 10.0096 20.8092C9.50323 21.3156 8.81648 21.6 8.10039 21.6H5.10039C4.38431 21.6 3.69755 21.3156 3.1912 20.8092C2.68485 20.3029 2.40039 19.6161 2.40039 18.9V15.9ZM13.2004 5.10002C13.2004 4.38394 13.4849 3.69718 13.9912 3.19084C14.4976 2.68449 15.1843 2.40002 15.9004 2.40002H18.9004C19.6165 2.40002 20.3032 2.68449 20.8096 3.19084C21.3159 3.69718 21.6004 4.38394 21.6004 5.10002V8.10002C21.6004 8.81611 21.3159 9.50286 20.8096 10.0092C20.3032 10.5156 19.6165 10.8 18.9004 10.8H15.9004C15.1843 10.8 14.4976 10.5156 13.9912 10.0092C13.4849 9.50286 13.2004 8.81611 13.2004 8.10002V5.10002ZM18.3004 14.1C18.3004 13.8613 18.2056 13.6324 18.0368 13.4636C17.868 13.2948 17.6391 13.2 17.4004 13.2C17.1617 13.2 16.9328 13.2948 16.764 13.4636C16.5952 13.6324 16.5004 13.8613 16.5004 14.1V16.5H14.1004C13.8617 16.5 13.6328 16.5948 13.464 16.7636C13.2952 16.9324 13.2004 17.1613 13.2004 17.4C13.2004 17.6387 13.2952 17.8676 13.464 18.0364C13.6328 18.2052 13.8617 18.3 14.1004 18.3H16.5004V20.7C16.5004 20.9387 16.5952 21.1676 16.764 21.3364C16.9328 21.5052 17.1617 21.6 17.4004 21.6C17.6391 21.6 17.868 21.5052 18.0368 21.3364C18.2056 21.1676 18.3004 20.9387 18.3004 20.7V18.3H20.7004C20.9391 18.3 21.168 18.2052 21.3368 18.0364C21.5056 17.8676 21.6004 17.6387 21.6004 17.4C21.6004 17.1613 21.5056 16.9324 21.3368 16.7636C21.168 16.5948 20.9391 16.5 20.7004 16.5H18.3004V14.1Z" fill="#E4F8FF"/>
</svg>
