<svg width="30" height="24" viewBox="0 0 30 24" fill="none" xmlns="http://www.w3.org/2000/svg">
<path d="M6 4.5C6 2.84531 7.34531 1.5 9 1.5H25.5C27.1547 1.5 28.5 2.84531 28.5 4.5V15.75H24V15C24 14.1703 23.3297 13.5 22.5 13.5H19.5C18.6703 13.5 18 14.1703 18 15V15.75H11.9484C12.4594 14.8688 12.75 13.8422 12.75 12.75C12.75 9.43594 10.0641 6.75 6.75 6.75C6.49687 6.75 6.24375 6.76406 6 6.79688V4.5ZM15.6094 21C15.3703 19.8656 14.8453 18.8391 14.1047 18H28.5C28.5 19.6547 27.1547 21 25.5 21H15.6094ZM3 12.75C3 11.7554 3.39509 10.8016 4.09835 10.0983C4.80161 9.39509 5.75544 9 6.75 9C7.74456 9 8.69839 9.39509 9.40165 10.0983C10.1049 10.8016 10.5 11.7554 10.5 12.75C10.5 13.7446 10.1049 14.6984 9.40165 15.4017C8.69839 16.1049 7.74456 16.5 6.75 16.5C5.75544 16.5 4.80161 16.1049 4.09835 15.4017C3.39509 14.6984 3 13.7446 3 12.75ZM0 22.5C0 20.0156 2.01562 18 4.5 18H9C11.4844 18 13.5 20.0156 13.5 22.5C13.5 23.3297 12.8297 24 12 24H1.5C0.670312 24 0 23.3297 0 22.5Z" fill="#E4F8FF"/>
</svg>
