<svg width="14" height="14" viewBox="0 0 14 14" fill="none" xmlns="http://www.w3.org/2000/svg">
<path fill-rule="evenodd" clip-rule="evenodd" d="M6.85481 1.74991H10.2498C10.9913 1.74887 11.707 2.02251 12.2587 2.51802C12.8103 3.01352 13.159 3.69579 13.2372 4.43319C13.3155 5.17058 13.1179 5.91084 12.6826 6.51113C12.2473 7.11143 11.605 7.52923 10.8798 7.68391C10.7418 8.06444 10.4915 8.39413 10.1622 8.6294C9.83276 8.86468 9.43974 8.99447 9.03501 9.00162C8.63029 9.00877 8.23292 8.89295 7.89543 8.66946C7.55793 8.44596 7.2962 8.12532 7.14481 7.74991H3.74981C3.401 7.74953 3.06297 7.87073 2.79386 8.09265C2.52475 8.31457 2.34139 8.62333 2.27533 8.96583C2.20927 9.30832 2.26464 9.66314 2.4319 9.96922C2.59917 10.2753 2.86788 10.5135 3.19181 10.6429C3.35801 10.2914 3.62308 9.99593 3.95458 9.7927C4.28608 9.58947 4.66963 9.48728 5.0583 9.49864C5.44697 9.50999 5.8239 9.6344 6.14297 9.85663C6.46204 10.0789 6.70941 10.3893 6.85481 10.7499H11.1078C11.0727 10.6241 11.0327 10.4996 10.9878 10.3769C10.9425 10.2586 10.9284 10.1306 10.9468 10.0052C10.9652 9.87983 11.0155 9.76128 11.0928 9.66091C11.1843 9.54308 11.3127 9.45946 11.4575 9.42354C11.6022 9.38762 11.7549 9.40149 11.8908 9.46291C12.2578 9.62291 12.6028 9.91191 12.8748 10.2409C13.1488 10.5729 13.3778 10.9809 13.4848 11.4089C13.5046 11.4884 13.5046 11.5715 13.4848 11.6509C13.3706 12.0806 13.1622 12.4796 12.8748 12.8189C12.6028 13.1489 12.2578 13.4379 11.8908 13.5979C11.7549 13.6593 11.6022 13.6732 11.4575 13.6373C11.3127 13.6014 11.1843 13.5177 11.0928 13.3999C11.0155 13.2995 10.9652 13.181 10.9468 13.0556C10.9284 12.9303 10.9425 12.8023 10.9878 12.6839C11.0413 12.5419 11.0867 12.397 11.1238 12.2499H6.85381C6.70225 12.625 6.44051 12.9453 6.10313 13.1685C5.76576 13.3918 5.36861 13.5075 4.96413 13.5003C4.55964 13.4932 4.16683 13.3635 3.83756 13.1285C3.50828 12.8935 3.25802 12.5641 3.11981 12.1839C2.39459 12.0292 1.75235 11.6114 1.31701 11.0111C0.881677 10.4108 0.684091 9.67058 0.762378 8.93319C0.840666 8.19579 1.18928 7.51352 1.74095 7.01802C2.29263 6.52251 3.00828 6.24887 3.74981 6.24991H7.14481C7.29021 5.88928 7.53758 5.57886 7.85665 5.35663C8.17572 5.1344 8.55265 5.00999 8.94132 4.99864C9.32999 4.98728 9.71354 5.08947 10.045 5.2927C10.3765 5.49593 10.6416 5.79139 10.8078 6.14291C11.1307 6.01266 11.3982 5.77423 11.5647 5.46843C11.7311 5.16263 11.786 4.80849 11.7201 4.46664C11.6542 4.12478 11.4714 3.81648 11.2032 3.59452C10.935 3.37255 10.598 3.25073 10.2498 3.24991H6.85481C6.70572 3.61982 6.44944 3.93671 6.1189 4.15987C5.78835 4.38303 5.39864 4.50227 4.99981 4.50227C4.60099 4.50227 4.21127 4.38303 3.88073 4.15987C3.55018 3.93671 3.2939 3.61982 3.14481 3.24991H1.49981C1.3009 3.24991 1.11013 3.17089 0.969482 3.03024C0.828829 2.88959 0.749812 2.69882 0.749812 2.49991C0.749812 2.301 0.828829 2.11023 0.969482 1.96958C1.11013 1.82893 1.3009 1.74991 1.49981 1.74991H3.14481C3.2939 1.38 3.55018 1.06312 3.88073 0.839956C4.21127 0.616797 4.60099 0.497559 4.99981 0.497559C5.39864 0.497559 5.78835 0.616797 6.1189 0.839956C6.44944 1.06312 6.70572 1.38 6.85481 1.74991Z" fill="#E4F8FF"/>
</svg>
