<svg width="24" height="24" viewBox="0 0 24 24" fill="none" xmlns="http://www.w3.org/2000/svg">
<path fill-rule="evenodd" clip-rule="evenodd" d="M3.5 9.568V14.432C3.5 16.726 3.5 17.872 4.222 18.585C4.877 19.232 5.896 19.291 7.818 19.297L7.803 19.192C7.688 18.348 7.688 17.276 7.688 15.945V15.892C7.688 15.489 8.019 15.162 8.428 15.162C8.836 15.162 9.167 15.489 9.167 15.892C9.167 17.288 9.168 18.262 9.268 18.997C9.366 19.711 9.543 20.09 9.816 20.359C10.089 20.628 10.472 20.804 11.195 20.899C11.939 20.999 12.926 21 14.341 21H15.326C16.741 21 17.727 20.998 18.472 20.9C19.195 20.804 19.578 20.628 19.85 20.359C20.123 20.089 20.301 19.711 20.398 18.997C20.498 18.263 20.5 17.288 20.5 15.892V8.108C20.5 6.711 20.498 5.738 20.398 5.003C20.301 4.289 20.123 3.91 19.851 3.641C19.578 3.371 19.195 3.196 18.471 3.101C17.728 3 16.742 3 15.327 3H14.342C12.927 3 11.94 3.002 11.196 3.1C10.473 3.196 10.09 3.372 9.817 3.641C9.544 3.911 9.367 4.289 9.269 5.003C9.169 5.737 9.168 6.711 9.168 8.108C9.168 8.511 8.837 8.838 8.428 8.838C8.33153 8.83866 8.23587 8.82029 8.1465 8.78395C8.05713 8.74761 7.9758 8.694 7.90716 8.6262C7.83853 8.5584 7.78393 8.47774 7.7465 8.38882C7.70906 8.2999 7.68952 8.20448 7.689 8.108V8.055C7.689 6.725 7.689 5.652 7.804 4.808L7.819 4.703C5.897 4.709 4.879 4.768 4.223 5.415C3.501 6.128 3.5 7.275 3.5 9.568ZM13.386 14.948L15.85 12.516C15.9186 12.4487 15.973 12.3684 16.0102 12.2798C16.0474 12.1912 16.0666 12.0961 16.0666 12C16.0666 11.9039 16.0474 11.8088 16.0102 11.7202C15.973 11.6316 15.9186 11.5513 15.85 11.484L13.386 9.052C13.2465 8.91513 13.0589 8.83846 12.8635 8.83846C12.6681 8.83846 12.4805 8.91513 12.341 9.052C12.2724 9.1193 12.218 9.1996 12.1808 9.2882C12.1436 9.37679 12.1244 9.47192 12.1244 9.568C12.1244 9.66408 12.1436 9.7592 12.1808 9.8478C12.218 9.9364 12.2724 10.0167 12.341 10.084L13.543 11.27H6.457C6.36044 11.2692 6.26468 11.2875 6.17519 11.3238C6.0857 11.36 6.00426 11.4136 5.93552 11.4814C5.86677 11.5493 5.81209 11.63 5.77459 11.7189C5.73709 11.8079 5.71752 11.9034 5.717 12C5.717 12.403 6.048 12.73 6.457 12.73H13.542L12.34 13.916C12.2714 13.9833 12.217 14.0636 12.1798 14.1522C12.1426 14.2408 12.1234 14.3359 12.1234 14.432C12.1234 14.5281 12.1426 14.6232 12.1798 14.7118C12.217 14.8004 12.2714 14.8807 12.34 14.948C12.4795 15.0849 12.6671 15.1615 12.8625 15.1615C13.0579 15.1615 13.2465 15.0849 13.386 14.948Z" fill="#E4F8FF"/>
</svg>
