<svg width="24" height="24" viewBox="0 0 24 24" fill="none" xmlns="http://www.w3.org/2000/svg">
<path d="M21 2.5H3C2.20435 2.5 1.44129 2.81607 0.87868 3.37868C0.31607 3.94129 0 4.70435 0 5.5L0 18.5C0 19.2956 0.31607 20.0587 0.87868 20.6213C1.44129 21.1839 2.20435 21.5 3 21.5H21C21.7956 21.5 22.5587 21.1839 23.1213 20.6213C23.6839 20.0587 24 19.2956 24 18.5V5.5C24 4.70435 23.6839 3.94129 23.1213 3.37868C22.5587 2.81607 21.7956 2.5 21 2.5ZM22 18.5C22 18.7652 21.8946 19.0196 21.7071 19.2071C21.5196 19.3946 21.2652 19.5 21 19.5H3C2.73478 19.5 2.48043 19.3946 2.29289 19.2071C2.10536 19.0196 2 18.7652 2 18.5V5.5C2 5.23478 2.10536 4.98043 2.29289 4.79289C2.48043 4.60536 2.73478 4.5 3 4.5H21C21.2652 4.5 21.5196 4.60536 21.7071 4.79289C21.8946 4.98043 22 5.23478 22 5.5V18.5Z" fill="#E4F8FF"/>
<path d="M12.0002 14C12.7913 14 13.5647 13.7654 14.2225 13.3259C14.8803 12.8864 15.393 12.2616 15.6957 11.5307C15.9985 10.7998 16.0777 9.99556 15.9234 9.21964C15.769 8.44372 15.3881 7.73098 14.8286 7.17157C14.2692 6.61216 13.5565 6.2312 12.7806 6.07686C12.0047 5.92252 11.2004 6.00173 10.4695 6.30448C9.73858 6.60723 9.11387 7.11992 8.67434 7.77772C8.23482 8.43552 8.00022 9.20888 8.00022 10C8.00022 11.0609 8.42165 12.0783 9.17179 12.8284C9.92194 13.5786 10.9394 14 12.0002 14ZM12.0002 12C11.4698 12 10.9611 11.7893 10.586 11.4142C10.2109 11.0391 10.0002 10.5304 10.0002 10C9.9996 9.7467 10.0471 9.49558 10.1402 9.26C10.1544 9.22771 10.175 9.19865 10.2008 9.17458C10.2266 9.15051 10.257 9.13194 10.2902 9.12C10.3546 9.09538 10.4258 9.09538 10.4902 9.12C11.3314 9.55352 12.2639 9.7798 13.2102 9.78C13.3868 9.78937 13.5637 9.78937 13.7402 9.78C13.8054 9.77844 13.869 9.79966 13.9202 9.84C13.9657 9.88164 13.9942 9.93863 14.0002 10C14.0002 10.5304 13.7895 11.0391 13.4144 11.4142C13.0394 11.7893 12.5307 12 12.0002 12ZM12.0002 15C11.0815 15.0023 10.1734 15.1955 9.3333 15.5673C8.49323 15.9392 7.7396 16.4815 7.12022 17.16C7.05386 17.2315 7.00989 17.3209 6.99373 17.4172C6.97756 17.5134 6.9899 17.6123 7.02924 17.7016C7.06857 17.7909 7.13318 17.8667 7.21509 17.9197C7.297 17.9728 7.39264 18.0007 7.49022 18H16.4902C16.5878 18.0007 16.6834 17.9728 16.7654 17.9197C16.8473 17.8667 16.9119 17.7909 16.9512 17.7016C16.9905 17.6123 17.0029 17.5134 16.9867 17.4172C16.9705 17.3209 16.9266 17.2315 16.8602 17.16C16.2431 16.484 15.4927 15.9431 14.6563 15.5713C13.8199 15.1996 12.9155 15.0051 12.0002 15Z" fill="#E4F8FF"/>
</svg>
