<svg width="24" height="24" viewBox="0 0 24 24" fill="none" xmlns="http://www.w3.org/2000/svg">
<path d="M2.74991 20C2.36657 20 2.08324 19.8417 1.89991 19.525C1.71657 19.2083 1.70824 18.8833 1.87491 18.55L4.59991 13.1C4.76657 12.7667 5.00424 12.5 5.31291 12.3C5.62157 12.1 5.96724 12 6.34991 12C6.74991 12 7.11657 12.104 7.44991 12.312C7.78324 12.52 8.02491 12.816 8.17491 13.2L8.84991 14.85C8.88324 14.95 8.95824 14.9957 9.07491 14.987C9.19157 14.9783 9.26657 14.9243 9.29991 14.825L11.4499 7.65C11.6832 6.85 12.1292 6.20833 12.7879 5.725C13.4466 5.24167 14.1922 5 15.0249 5C15.8416 5 16.5709 5.23733 17.2129 5.712C17.8549 6.18667 18.3006 6.80767 18.5499 7.575L22.4249 18.675C22.5416 19.0083 22.4959 19.3127 22.2879 19.588C22.0799 19.8633 21.8089 20.0007 21.4749 20H2.74991ZM5.99991 10C5.16657 10 4.45824 9.704 3.87491 9.112C3.29157 8.52 2.99991 7.816 2.99991 7C2.99991 6.16667 3.29157 5.45833 3.87491 4.875C4.45824 4.29167 5.16657 4 5.99991 4C6.83324 4 7.54157 4.29167 8.12491 4.875C8.70824 5.45833 8.99991 6.16667 8.99991 7C8.99991 7.81667 8.70824 8.521 8.12491 9.113C7.54157 9.705 6.83324 10.0007 5.99991 10Z" fill="#144A5D"/>
</svg>
