<svg width="30" height="24" viewBox="0 0 30 24" fill="none" xmlns="http://www.w3.org/2000/svg">
<path d="M15 0C16.5913 0 18.1174 0.632141 19.2426 1.75736C20.3679 2.88258 21 4.4087 21 6C21 7.5913 20.3679 9.11742 19.2426 10.2426C18.1174 11.3679 16.5913 12 15 12C13.4087 12 11.8826 11.3679 10.7574 10.2426C9.63214 9.11742 9 7.5913 9 6C9 4.4087 9.63214 2.88258 10.7574 1.75736C11.8826 0.632141 13.4087 0 15 0ZM1.875 3C2.91094 3 3.75 3.83906 3.75 4.875V12.3844C3.75 13.1813 4.06406 13.9453 4.62656 14.5078L7.02188 16.9031C7.41094 17.2922 8.02031 17.3531 8.475 17.0484C9.07969 16.6453 9.16406 15.7875 8.64844 15.2766L7.93594 14.5641L6.43594 13.0641C5.85 12.4781 5.85 11.5266 6.43594 10.9406C7.02188 10.3547 7.97344 10.3547 8.55938 10.9406L10.0594 12.4406L10.7719 13.1531L11.9578 14.3391C12.9422 15.3234 13.4953 16.6594 13.4953 18.0516V21.75C13.4953 22.9922 12.4875 24 11.2453 24H8.11875C7.32187 24 6.55781 23.6859 5.99531 23.1234L1.31719 18.4406C0.473438 17.5969 0 16.4531 0 15.2578V4.875C0 3.83906 0.839062 3 1.875 3ZM28.125 3C29.1609 3 30 3.83906 30 4.875V15.2578C30 16.4531 29.5266 17.5969 28.6828 18.4406L24 23.1234C23.4375 23.6859 22.6734 24 21.8766 24H18.75C17.5078 24 16.5 22.9922 16.5 21.75V18.0516C16.5 16.6594 17.0531 15.3234 18.0375 14.3391L19.2234 13.1531L19.9359 12.4406L21.4359 10.9406C22.0219 10.3547 22.9734 10.3547 23.5594 10.9406C24.1453 11.5266 24.1453 12.4781 23.5594 13.0641L22.0594 14.5641L21.3469 15.2766C20.8312 15.7922 20.9156 16.6453 21.5203 17.0484C21.975 17.3531 22.5844 17.2922 22.9734 16.9031L25.3688 14.5078C25.9313 13.9453 26.2453 13.1813 26.2453 12.3844V4.875C26.2453 3.83906 27.0844 3 28.1203 3H28.125Z" fill="#E4F8FF"/>
</svg>
