<svg width="24" height="24" viewBox="0 0 24 24" fill="none" xmlns="http://www.w3.org/2000/svg">
<path d="M15.7993 15.5003C16.7196 14.9888 16.6003 13.0178 15.5338 11.0948C15.0763 10.2668 14.5138 9.59633 13.9513 9.12758C13.2787 9.62671 12.4639 9.89742 11.6263 9.90008C10.7874 9.89822 9.97123 9.62747 9.29756 9.12758C8.73506 9.59633 8.17406 10.2676 7.71506 11.0948C6.64781 13.0171 6.53006 14.9888 7.45256 15.5003C7.86356 15.7343 8.29706 15.5588 8.74406 15.1283C8.66033 15.5921 8.61841 16.0625 8.61881 16.5338C8.61881 18.7373 9.47381 20.5178 10.5261 20.5178C11.1606 20.5178 11.4748 19.8691 11.6256 18.8768C11.7756 19.8623 12.0906 20.5178 12.7206 20.5178C13.7683 20.5178 14.6301 18.7366 14.6301 16.5338C14.6301 16.0388 14.5836 15.5663 14.5041 15.1291C14.9541 15.5603 15.3861 15.7388 15.7986 15.5018L15.7993 15.5003ZM11.6248 9.15008C12.0503 9.15643 12.4729 9.07809 12.8678 8.91961C13.2628 8.76113 13.6223 8.52567 13.9254 8.22695C14.2285 7.92823 14.4692 7.5722 14.6334 7.17959C14.7976 6.78698 14.8821 6.36563 14.882 5.94006C14.8818 5.51449 14.797 5.09319 14.6325 4.7007C14.468 4.3082 14.2271 3.95235 13.9238 3.65384C13.6205 3.35533 13.2608 3.12013 12.8657 2.96192C12.4707 2.80372 12.0481 2.72567 11.6226 2.73233C10.78 2.7455 9.97644 3.08952 9.38538 3.69011C8.79432 4.2907 8.46318 5.09966 8.46348 5.94231C8.46377 6.78496 8.79548 7.59369 9.38696 8.19386C9.97844 8.79403 10.7822 9.13749 11.6248 9.15008ZM18.0703 11.1856C18.7557 11.1655 19.4062 10.8792 19.8839 10.3874C20.3616 9.8955 20.6288 9.23685 20.6288 8.5512C20.6288 7.86556 20.3616 7.2069 19.8839 6.71505C19.4062 6.22319 18.7557 5.93686 18.0703 5.91683C17.3714 5.91693 16.7012 6.19465 16.2071 6.6889C15.713 7.18315 15.4355 7.85345 15.4356 8.55233C15.4357 9.2512 15.7134 9.92142 16.2076 10.4155C16.7019 10.9096 17.3722 11.1872 18.0711 11.1871L18.0703 11.1856ZM21.2803 12.7831C20.9038 12.1021 20.4433 11.5516 19.9813 11.1668C19.4287 11.5763 18.7596 11.7984 18.0718 11.8006C17.5048 11.8006 16.9768 11.6453 16.5148 11.3881C16.8868 12.2078 17.1171 13.0381 17.1598 13.7806C17.2303 14.9176 16.8748 15.7606 16.1638 16.1543C16.0115 16.2383 15.8458 16.2951 15.6741 16.3223C15.6313 16.6163 15.6021 16.9223 15.6021 17.2448C15.6021 19.0546 16.3033 20.5163 17.1681 20.5163C17.6886 20.5163 17.9481 19.9838 18.0711 19.1693C18.1933 19.9793 18.4521 20.5163 18.9711 20.5163C19.8298 20.5163 20.5386 19.0538 20.5386 17.2463C20.5386 16.8391 20.4988 16.4513 20.4336 16.0913C20.8026 16.4461 21.1581 16.5923 21.4971 16.3973C22.2523 15.9773 22.1548 14.3588 21.2796 12.7823L21.2803 12.7831ZM5.17931 11.1856C5.7002 11.1853 6.20931 11.0305 6.64227 10.7409C7.07523 10.4513 7.4126 10.0399 7.61174 9.55853C7.81087 9.0772 7.86281 8.54764 7.76101 8.03679C7.65921 7.52594 7.40823 7.05675 7.03979 6.68853C6.67136 6.32031 6.20203 6.06959 5.69112 5.96808C5.18022 5.86657 4.65068 5.91882 4.16947 6.11822C3.68826 6.31763 3.27697 6.65523 2.98761 7.08836C2.69825 7.52149 2.54381 8.03068 2.54381 8.55158C2.544 9.25049 2.82174 9.92073 3.31595 10.4149C3.81015 10.9091 4.48039 11.1869 5.17931 11.1871V11.1856ZM7.08056 16.1521C5.88656 15.4883 5.77706 13.5091 6.73856 11.3866C6.26333 11.6565 5.72656 11.7993 5.18006 11.8013C4.46306 11.8013 3.80606 11.5613 3.26756 11.1668C2.80631 11.5508 2.34656 12.1013 1.96856 12.7816C1.09331 14.3596 0.997306 15.9781 1.75331 16.3966C2.09081 16.5901 2.44706 16.4453 2.81381 16.0921C2.74708 16.473 2.7132 16.8589 2.71256 17.2456C2.71256 19.0546 3.41381 20.5156 4.27856 20.5156C4.79906 20.5156 5.05856 19.9831 5.18156 19.1693C5.30531 19.9793 5.56406 20.5163 6.08156 20.5163C6.94181 20.5163 7.64906 19.0538 7.64906 17.2463C7.64906 16.9216 7.61906 16.6148 7.57631 16.3208C7.40265 16.2938 7.2351 16.2364 7.08131 16.1513L7.08056 16.1521Z" fill="#E4F8FF"/>
</svg>
