<svg width="24" height="24" viewBox="0 0 24 24" fill="none" xmlns="http://www.w3.org/2000/svg">
<path d="M2.27978 2.18994C2.057 2.18994 1.84334 2.27844 1.68581 2.43597C1.52828 2.5935 1.43978 2.80716 1.43978 3.02994V8.12994H0.839778C0.719856 8.1299 0.601316 8.15554 0.492129 8.20514C0.382942 8.25473 0.28564 8.32713 0.206766 8.41746C0.127891 8.5078 0.0692736 8.61397 0.034854 8.72885C0.000434513 8.84372 -0.00898878 8.96464 0.00721784 9.08346L1.44722 21.083V21.0835L1.45346 21.1199V21.1209L1.46066 21.1569V21.1574L1.47026 21.1934V21.1946C1.47362 21.2066 1.47722 21.2184 1.48106 21.2301V21.2306C1.4849 21.2424 1.48914 21.2542 1.49378 21.2659V21.2663L1.5077 21.3004V21.3009C1.5125 21.3124 1.5177 21.3239 1.5233 21.3352V21.3357C1.52874 21.3467 1.5345 21.3576 1.54058 21.3683V21.3688C1.54897 21.3841 1.55777 21.3991 1.56698 21.4139C1.57764 21.4311 1.58885 21.4479 1.60058 21.4643L1.60106 21.4651C1.60826 21.4751 1.61578 21.485 1.62362 21.4946V21.4951C1.63944 21.5144 1.65601 21.5332 1.6733 21.5512L1.67378 21.5517C1.68226 21.5607 1.69098 21.5695 1.69994 21.5781L1.70042 21.5786C1.74587 21.6218 1.79602 21.6598 1.84994 21.6919H1.85042L1.86218 21.6986C1.87995 21.7088 1.89804 21.7184 1.91642 21.7274H1.9169C1.97359 21.7546 2.03317 21.7754 2.0945 21.7893H2.09498C2.10714 21.7922 2.11938 21.7947 2.1317 21.797H2.13218C2.16927 21.8032 2.2067 21.8072 2.24426 21.809C2.2561 21.8096 2.2681 21.8099 2.27978 21.8099H21.7198C21.8462 21.81 21.9709 21.7816 22.0848 21.7267C22.1986 21.6719 22.2987 21.592 22.3774 21.4931V21.4927C22.4243 21.4336 22.4631 21.3684 22.4926 21.299V21.2985L22.507 21.2639V21.2635C22.5287 21.2053 22.5439 21.145 22.5523 21.0835L23.9923 9.08346C24.0085 8.96464 23.9991 8.84372 23.9647 8.72885C23.9303 8.61397 23.8717 8.5078 23.7928 8.41746C23.7139 8.32713 23.6166 8.25473 23.5074 8.20514C23.3982 8.15554 23.2797 8.1299 23.1598 8.12994H22.5598V5.12994C22.5598 4.90716 22.4713 4.6935 22.3137 4.53597C22.1562 4.37844 21.9426 4.28994 21.7198 4.28994H9.77978V3.02994C9.77978 2.80716 9.69128 2.5935 9.53375 2.43597C9.37622 2.27844 9.16256 2.18994 8.93978 2.18994H2.27978ZM3.11978 6.44994H20.8798V8.12994H3.11978V6.44994ZM7.7633 9.80994H10.0582C10.2151 9.86994 10.3666 9.95562 10.4407 10.0612C10.356 10.0972 10.5775 10.0967 10.4911 10.1846C10.3966 10.2724 10.3841 10.3622 10.4191 10.4606C10.3608 10.5297 10.3399 10.5501 10.4441 10.6012C10.4489 10.6903 10.1707 10.5875 10.362 10.6855C10.4302 10.8693 10.087 10.6751 10.1124 10.7999C10.2516 10.7087 10.3524 10.9351 10.2382 10.8993C10.1765 10.8403 10.0606 10.7997 10.1839 10.9022C10.291 10.9478 10.3447 11.1165 10.2948 11.1643C10.1969 11.1417 10.0757 11.1707 10.2627 11.1885C10.2411 11.3217 9.9785 11.4011 9.81314 11.4458C9.64514 11.5238 9.59066 11.7098 9.36074 11.728C9.29282 11.8125 9.3125 11.95 9.22706 12.0004C9.27458 12.1341 9.10922 12.3086 8.98946 12.1451C8.76554 12.1211 8.74562 11.8864 8.66282 11.753C8.63691 11.7204 8.61811 11.6828 8.60764 11.6426C8.59716 11.6023 8.59524 11.5603 8.60201 11.5193C8.60877 11.4782 8.62406 11.439 8.64689 11.4043C8.66973 11.3695 8.6996 11.3399 8.73458 11.3174C8.7953 11.2118 8.63954 11.1789 8.63378 11.2814C8.38898 11.339 8.50442 11.0327 8.6969 11.1172C8.75474 11.135 8.60738 10.9607 8.54234 11.0488C8.42234 10.9845 8.62082 10.8323 8.48378 10.7392C8.4197 10.6 8.40146 10.4123 8.2085 10.3495C8.11058 10.2703 8.0309 10.3823 7.92362 10.3775C7.75826 10.3627 7.7993 10.2201 7.67282 10.1759C7.76258 10.0924 7.81058 10.0679 7.65914 10.018C7.52354 9.92994 7.65122 9.85674 7.7633 9.80994ZM7.24058 9.88314C7.4129 9.88818 7.45538 9.99738 7.3241 10.0439C7.27514 10.1315 7.23794 10.1615 7.30802 10.2347C7.25426 10.3079 7.12322 10.3615 7.08074 10.2856C6.9521 10.3291 6.75002 10.2537 6.67106 10.3495C6.80786 10.4899 7.20626 10.2355 7.1933 10.4774C7.1993 10.6919 6.79586 10.5614 6.6149 10.5839C6.41162 10.5422 6.6041 10.2695 6.34706 10.288C6.13994 10.1248 6.43634 10.1291 6.54386 10.2093C6.6533 10.2484 6.67802 10.2405 6.73826 10.1503C6.82442 10.1181 6.63818 9.98058 6.81506 9.94218C6.94874 9.8997 7.1021 9.9129 7.24058 9.88314ZM5.54474 9.9249C5.6993 9.9585 5.52938 10.2136 5.40122 10.0461C5.25554 10.0108 5.34674 9.91794 5.45738 9.92562C5.48621 9.92004 5.51582 9.91979 5.54474 9.9249ZM6.07898 9.93594C6.35954 9.93258 6.00986 10.1215 5.97074 9.96978C5.98658 9.93858 6.04394 9.93906 6.07898 9.93594ZM6.30962 9.93714C6.42482 9.93474 6.38978 10.0315 6.49682 10.0413C6.48554 10.1954 6.0785 9.9309 6.30962 9.93714ZM12.3293 9.95154C12.4743 9.96114 12.3137 10.1191 12.2943 10.2213C12.2247 10.3135 12.1479 10.1315 12.1193 10.091C12.1805 10.042 11.9947 9.93138 12.1935 9.95778H12.2472C12.2816 9.9525 12.309 9.95026 12.3293 9.95154ZM12.5645 9.95802C12.7061 9.96354 12.7786 10.0586 12.6327 10.1092C12.5621 10.1719 12.3893 9.97242 12.5645 9.95802ZM16.7105 9.95802C16.8615 10.0048 16.5303 10.0012 16.7105 9.95802ZM5.79938 10.0053C5.93738 9.99954 5.89418 10.2367 5.81954 10.0804C5.81066 10.0559 5.79794 10.0312 5.79938 10.0053ZM16.9047 10.0255C17.0717 10.0408 17.0319 10.2395 17.251 10.2071C17.5311 10.2669 17.4689 10.5537 17.2402 10.6334C17.2647 10.7054 17.3955 10.654 17.4113 10.6871C17.4862 10.7435 17.6998 10.6751 17.7492 10.7899C17.9513 10.8859 17.8779 10.5911 18.0665 10.7126C18.3708 10.7025 18.1863 10.9797 18.337 11.0757C18.3941 11.0435 18.4056 10.8705 18.4978 11.0013C18.5923 11.0215 18.8597 11.0145 18.7565 10.9103C18.8232 10.7623 19.1352 10.8736 19.2876 10.9103C19.3923 11.0051 19.4875 11.1139 19.6903 11.0711C19.9203 11.0059 19.8286 11.3255 20.0391 11.2223C20.1569 11.2744 20.2311 11.2199 20.3237 11.1883C20.388 11.2219 20.2661 11.3543 20.4245 11.3116C20.3055 11.1093 20.7029 11.2156 20.8234 11.2555C21.0127 11.3459 21.1488 11.4995 21.3658 11.5531C21.3919 11.6779 21.36 11.9505 21.144 11.7681C21.0492 11.6068 20.7624 11.8243 20.9016 11.9457C20.8743 12.0563 20.6076 11.9908 20.5344 12.1185C20.4624 12.2207 20.3751 12.1867 20.2716 12.1792C20.2246 12.2339 20.1862 12.2332 20.1492 12.2135C20.0556 12.262 20.053 12.2409 20.125 12.2819C20.076 12.3856 19.9632 12.2704 20.0381 12.3935C20.0662 12.5335 19.9253 12.6266 19.8648 12.7415C19.7772 12.7641 19.6776 12.995 19.6116 12.9091C19.7592 12.7771 19.5139 12.5591 19.6875 12.4235C19.7667 12.2963 19.9673 12.2075 20.0287 12.0863C19.9121 12.1579 19.8367 12.2011 19.8355 12.0657C19.6877 12.0616 19.5859 12.2073 19.6075 12.2865C19.4172 12.3431 19.3414 12.2234 19.1443 12.2769C18.8931 12.2371 18.8119 12.4672 18.6447 12.5613C18.5184 12.6357 18.751 12.6626 18.8115 12.6415C18.8974 12.7262 18.9219 12.6619 18.9624 12.6355C19.0224 12.7487 19.0387 12.9187 19.0536 13.025C18.9017 12.9314 19.0714 13.1829 18.9459 13.1942C18.9919 13.2885 19.2735 13.2988 19.0519 13.3845C18.9874 13.4474 18.8364 13.3723 18.9207 13.4956C18.9586 13.6845 18.8191 13.8422 18.5715 13.8662C18.4263 13.8554 18.3195 14.099 18.2751 13.9132C18.2369 13.7611 18.5895 13.7711 18.6675 13.6531C18.8935 13.6166 18.7347 13.3634 18.8878 13.2616C18.8916 13.1486 18.9543 12.892 18.8751 12.8594C18.8717 13.0521 18.7109 13.2177 18.5463 13.3526C18.4327 13.3939 18.2981 13.3747 18.2611 13.499C18.0864 13.5527 18.3031 13.6293 18.2705 13.7253C18.2839 13.798 18.0305 13.8933 18.0826 13.7668C18.1277 13.6456 17.9566 13.6665 18.0147 13.5568C17.8923 13.576 17.7499 13.6415 17.8452 13.5007C17.7907 13.5191 17.5764 13.6379 17.7624 13.6511C17.9232 13.6099 17.9535 13.7063 17.7934 13.7447C17.7526 13.8679 17.9645 14.0047 17.8332 14.1292C17.7358 14.3059 17.5181 14.3992 17.2884 14.446C17.2887 14.5144 17.1348 14.6735 17.1226 14.5276C17.2354 14.4695 17.1963 14.4023 17.0789 14.47C16.9488 14.5929 17.4173 14.7928 17.1142 14.9087C17.0326 14.9776 16.9548 15.0079 16.9097 14.9111C16.8183 14.8867 16.723 14.7163 16.7331 14.8862C16.6915 15.0283 17.0436 15.1413 16.9051 15.2692C16.7047 15.202 16.6227 14.993 16.6162 14.8358C16.5881 14.7367 16.519 14.6013 16.3767 14.6822C16.3234 14.5651 16.2706 14.3099 16.0431 14.4287C15.912 14.5125 15.7735 14.6087 15.6389 14.6983C15.5273 14.8327 15.8715 15.0439 15.6065 15.0955C15.5446 15.0143 15.6749 14.8315 15.505 14.9884C15.3346 14.9589 15.3055 14.7088 15.2266 14.585C15.2355 14.4643 15.1543 14.4547 15.0334 14.4208C14.9556 14.2175 14.6595 14.2737 14.4492 14.2432C14.2411 14.2103 14.7363 14.3891 14.484 14.4753C14.3803 14.6167 14.1639 14.6659 13.9918 14.7424C13.8855 14.7575 13.567 14.8696 13.8348 14.8703C13.9433 14.8463 14.1787 14.7741 14.0842 14.9359C14.011 15.1123 13.8384 15.2491 13.6534 15.3592C13.5034 15.4603 13.4465 15.6215 13.531 15.7639C13.5989 15.9271 13.5151 16.0706 13.3102 16.1332C13.2149 16.2323 13.3332 16.3903 13.1527 16.4659C13.0764 16.6147 12.9624 16.8002 12.7411 16.8386C12.5585 16.888 12.2823 16.9067 12.3113 16.6989C12.1971 16.5556 12.1435 16.3975 12.0929 16.2355C11.9232 16.0972 12.0199 15.9242 12.0948 15.7771C12.0979 15.6131 11.9083 15.4874 11.8505 15.3597C11.8678 15.2966 11.9405 15.1629 11.8042 15.161C11.6626 15.1843 11.587 15.005 11.4274 15.1118C11.2359 15.1492 10.9954 15.1984 10.8305 15.0868C10.6903 14.9812 10.4655 14.8377 10.477 14.6879C10.591 14.5372 10.4235 14.3368 10.6421 14.2055C10.8255 14.0971 10.8696 13.9346 11.0203 13.8105C11.2071 13.6627 10.8286 13.7275 10.9121 13.5724C10.8684 13.4193 10.9236 13.2412 11.1749 13.3075C11.2543 13.3115 11.3607 13.3377 11.3237 13.246C11.4065 13.1131 11.0187 13.0684 11.2003 12.9981C11.3561 13.0466 11.2325 12.8903 11.401 12.9331C11.5827 12.8435 11.1979 12.9122 11.1355 12.9268C11.046 12.9496 11.1787 12.8294 11.1276 12.7881C11.1756 12.742 11.1514 12.7204 11.2181 12.6563C11.0597 12.545 11.1456 12.8635 10.95 12.826C10.7854 12.874 10.8569 12.6679 10.9003 12.6203C10.9503 12.6227 10.9942 12.5349 11.0847 12.5373C11.0475 12.4564 11.1243 12.2078 11.2457 12.3311C11.2445 12.388 11.3921 12.3803 11.2879 12.4655C11.3119 12.6079 11.551 12.6983 11.4943 12.8481C11.6319 12.8049 11.6911 12.6705 11.8421 12.6386C11.7814 12.5558 11.7941 12.3547 11.9616 12.3883C11.9971 12.4931 11.8224 12.6547 12.0891 12.6199C12.1829 12.6871 12.3315 12.5243 12.4054 12.6105C12.5585 12.496 12.4543 12.2529 12.7239 12.2205C12.8163 12.2457 13.0085 12.1528 12.811 12.1701C12.5446 12.3136 12.3823 12.017 12.5638 11.8792C12.6804 11.836 12.7728 11.6128 12.5775 11.7007C12.5717 11.8622 12.2784 11.9342 12.3262 12.1058C12.486 12.2522 12.2362 12.3602 12.2242 12.5145C12.1471 12.5428 11.9194 12.6556 11.9971 12.5092C12.0497 12.4641 11.9746 12.2894 11.9275 12.2858C11.821 12.4031 11.6335 12.365 11.6621 12.2066C11.5834 12.0242 11.7396 11.95 11.8942 11.8353C12.0406 11.7129 12.0989 11.5451 12.2139 11.4119C12.3144 11.2631 12.4848 11.1539 12.6773 11.1143C12.7589 10.9879 13.1398 11.1103 13.0073 11.2183C13.1496 11.1799 13.2019 11.3085 13.3452 11.3289C13.5387 11.3747 13.7172 11.6409 13.4062 11.6455C13.3119 11.6486 13.1091 11.5219 13.2305 11.651C13.1897 11.7237 13.3565 11.89 13.3579 11.8207C13.2579 11.7482 13.3531 11.6702 13.4424 11.7602C13.5187 11.7395 13.537 11.549 13.7088 11.585C13.7376 11.4854 13.5567 11.2708 13.8144 11.3776C13.9481 11.4175 13.6872 11.5598 13.8787 11.5281C13.9541 11.4347 14.1629 11.3075 14.2757 11.3363C14.2416 11.447 14.5054 11.2821 14.5865 11.3121C14.5879 11.2497 14.3755 11.1976 14.4929 11.1371C14.6494 11.2259 14.8512 11.2605 14.9962 11.3603C14.9261 11.2411 14.8349 11.0863 14.9621 10.9675C14.9837 10.9031 15.1116 10.6339 15.1721 10.7839C15.0545 10.8419 15.3382 10.8163 15.2316 10.9334C15.1649 11.147 15.312 10.8741 15.3413 10.8143C15.4075 10.8556 15.39 11.0095 15.5035 10.9007C15.5919 10.8503 15.8451 11.063 15.6787 10.9055C15.5275 10.7579 15.6903 10.6535 15.8945 10.6727C15.9915 10.6519 15.8556 10.5388 15.9593 10.4947C16.063 10.4215 16.2576 10.3288 16.4213 10.306C16.5264 10.3353 16.7309 10.3399 16.6584 10.2436C16.8106 10.2563 16.728 10.0471 16.9047 10.0255ZM5.2565 10.043C5.4149 10.1006 5.12618 10.3747 5.34386 10.2412C5.45234 10.2518 5.66546 10.5052 5.58338 10.3063C5.49458 10.2326 5.74274 10.1039 5.70386 10.2511C5.70554 10.3403 5.93066 10.3327 5.8445 10.4644C5.9177 10.3324 6.02426 10.5484 5.84114 10.4995C5.6225 10.5019 5.4197 10.6881 5.25602 10.4944C5.15042 10.4407 5.2385 10.3862 5.09714 10.4085C5.0441 10.3516 5.3261 10.2777 5.15522 10.2998C5.09378 10.4308 4.7765 10.3327 4.9781 10.2256C5.05394 10.1299 5.1221 10.0747 5.2565 10.043ZM7.9205 10.0523C8.00738 10.0934 7.79666 10.0955 7.9205 10.0523ZM14.9681 10.1661C15.2038 10.2859 14.7963 10.3927 14.6863 10.4675C14.5207 10.6024 14.3683 10.7675 14.3443 10.9564C14.3436 11.0438 14.5498 11.1707 14.3129 11.1388C14.1958 11.1316 14.2114 11.0047 14.1017 10.9869C14.1497 10.8676 14.2198 10.7104 14.3002 10.5683C14.3151 10.4303 14.5443 10.2947 14.7231 10.2815C14.8246 10.2695 14.8659 10.1767 14.9681 10.1661ZM5.36714 10.1707C5.53106 10.2307 5.25338 10.2196 5.36714 10.1707ZM6.19754 10.204C6.32042 10.2655 6.25274 10.3972 6.2645 10.4937C6.20234 10.522 6.0209 10.5129 6.08402 10.4083C5.91506 10.4546 6.07442 10.2823 5.91482 10.3235C5.78858 10.1947 5.97194 10.2482 6.0137 10.2532C6.06602 10.1673 6.16586 10.2657 6.19754 10.204ZM10.3613 10.2105C10.1609 10.2388 10.4849 10.3987 10.3719 10.2263L10.3613 10.2105ZM18.7246 10.3079C18.8463 10.3617 18.9351 10.2887 19.0567 10.3855C19.1667 10.4277 19.4463 10.4366 19.3611 10.5487C19.1859 10.6048 19.1511 10.3509 19.0155 10.5119C18.8076 10.6471 18.4666 10.4639 18.7246 10.3079ZM18.5835 10.354C18.6627 10.4181 18.5383 10.5278 18.5614 10.3881C18.5659 10.3775 18.565 10.3581 18.5835 10.354ZM6.37298 10.3915C6.6305 10.4603 6.34946 10.6991 6.30098 10.4651C6.31274 10.4371 6.33122 10.3994 6.37298 10.3915ZM5.00234 10.5657C5.1833 10.5945 5.31914 10.714 5.42882 10.7947C5.5133 10.8273 5.55266 10.8434 5.58482 10.7973C5.71298 10.9079 5.70938 10.6077 5.89946 10.7073C5.85602 10.8671 5.85314 11.0858 6.07346 11.1626C6.12122 11.2521 5.99354 11.4055 5.83658 11.3294C5.6417 11.3973 5.43674 11.3983 5.28578 11.2881C5.07722 11.2413 5.3297 11.1427 5.30738 11.147C5.10026 11.183 5.13506 10.9142 5.11394 10.9168C5.05466 10.9972 4.89242 11.1659 4.82426 10.9929C4.65458 10.8969 4.90442 10.7176 4.81946 10.5873C4.87466 10.5671 4.94186 10.5638 5.00234 10.5657ZM18.8458 10.6055C18.8441 10.6838 19.0997 10.7056 18.9701 10.7839C18.8297 10.7937 18.7517 10.7666 18.8088 10.6756C18.8031 10.6538 18.7935 10.5969 18.8458 10.6055ZM6.52898 10.624C6.69002 10.642 6.63314 10.8232 6.49346 10.876C6.43634 11.0015 6.5657 11.1803 6.61586 11.2497C6.59714 11.3603 6.78338 11.2247 6.7709 11.3642C6.75794 11.4256 6.81482 11.5715 6.84026 11.4266C6.94562 11.2991 6.85466 11.1803 6.69866 11.1311C6.59042 10.9982 6.61058 10.7661 6.81122 10.696C6.95018 10.6708 6.89642 10.787 7.04162 10.7037C7.27898 10.655 7.40642 10.8151 7.50578 10.9463C7.64834 11.0224 7.85018 11.1215 7.86914 11.2675C7.95026 11.29 7.7441 11.3779 7.91738 11.3937C8.00738 11.4244 8.23466 11.5603 8.1209 11.6721C8.0873 11.8233 7.94426 11.7287 7.89914 11.6402C7.81394 11.7539 8.13986 11.848 7.9841 11.9875C7.8713 11.8852 7.9985 12.1118 7.84394 12.0321C7.6313 12.0259 7.57778 11.7614 7.35914 11.8315C7.18562 11.7979 7.30682 11.6447 7.45106 11.6918C7.51778 11.591 7.63106 11.387 7.37498 11.363C7.30658 11.3575 7.34474 11.1436 7.19234 11.2334C6.92714 11.2041 7.21226 11.4057 7.10042 11.5168C7.13906 11.6608 6.77186 11.6008 6.96962 11.6987C7.0433 11.7386 7.31786 11.9191 7.06802 11.8919C6.9857 11.8415 6.83978 12.0052 6.79346 11.8545C6.84506 11.7875 6.85514 11.6935 6.7901 11.801C6.6317 11.9075 6.4733 12.0345 6.41498 12.1953C6.41114 12.2827 6.53186 12.335 6.5669 12.4142C6.74282 12.4502 6.9317 12.5486 7.0757 12.5942C7.01066 12.6935 7.25714 12.9283 7.22042 12.7159C7.15274 12.5673 7.47242 12.4653 7.25474 12.3242C7.1909 12.2584 7.34522 12.1891 7.28354 12.0878C7.23314 11.8603 7.61858 12.0201 7.7261 12.1005C7.7213 12.2109 7.87538 12.424 7.93946 12.2116C8.05322 12.0691 8.11298 12.3633 8.16314 12.4295C8.20154 12.5824 8.50034 12.6007 8.48282 12.7699C8.4617 12.8366 8.45354 12.9427 8.58962 12.9686C8.6501 13.0607 8.62538 13.21 8.44082 13.1222C8.32394 13.1083 8.20418 13.091 8.30498 12.9789C8.37338 12.9062 8.35826 12.8135 8.24426 12.9071C8.10266 12.9187 8.17754 13.0447 8.0153 12.9616C7.8113 12.9081 7.9217 12.9751 8.02394 12.9971C7.95194 13.1287 8.15426 13.1687 8.2349 13.1155C8.3045 13.2374 8.0033 13.3075 7.91282 13.3108C7.95602 13.162 7.57922 13.3641 7.74074 13.4253C7.5329 13.4344 7.43714 13.5712 7.42106 13.7243C7.36778 13.8655 7.00178 13.9221 7.16426 14.1129C7.25066 14.1969 7.11314 14.3464 7.05626 14.1962C7.0589 14.0529 6.81338 13.9857 6.7049 14.0515C6.6077 14.111 6.27434 14.0054 6.28802 14.2151C6.20138 14.3659 6.38858 14.663 6.59834 14.4873C6.6293 14.3637 6.9533 14.3728 6.80282 14.5209C6.66218 14.6822 6.88994 14.6205 6.99242 14.6824C6.9893 14.8087 7.02794 15.004 7.25042 14.9239C7.40498 14.9707 7.53362 14.7722 7.69298 14.8456C7.8869 14.8919 8.13842 14.836 8.2733 14.986C8.42378 15.118 8.78954 15.0664 8.77346 15.3062C8.83994 15.3266 8.95106 15.3369 9.0185 15.3827C9.19514 15.4552 9.50906 15.4502 9.5633 15.6189C9.55322 15.7895 9.29042 15.8906 9.33914 16.0797C9.32426 16.2878 9.07562 16.3226 8.89898 16.4157C8.82818 16.5909 8.70194 16.7771 8.5061 16.8863C8.29322 16.8393 8.52242 17.0654 8.29898 17.0805C8.10938 17.0534 8.14874 17.2437 7.97834 17.2286C8.14514 17.2773 7.94042 17.4225 7.85474 17.4868C8.0081 17.561 7.89074 17.6997 7.77578 17.7789C7.75082 17.8972 7.89578 18.0124 7.96202 18.0693C7.72418 18.1468 7.54394 18.0311 7.49282 17.86C7.46018 17.7295 7.45802 17.5917 7.42202 17.4962C7.55714 17.4537 7.51538 17.3459 7.46594 17.2984C7.49378 17.1424 7.51514 16.9857 7.58546 16.8367C7.60226 16.601 7.69826 16.3675 7.66058 16.1303C7.51058 16.0156 7.31018 15.9225 7.2485 15.7432C7.1093 15.6237 7.10378 15.5011 7.13642 15.3542C7.23674 15.2469 7.3625 15.1291 7.2509 14.9937C7.13138 15.0904 6.88898 14.9519 6.80498 14.8348C6.5957 14.7283 6.3797 14.6769 6.14234 14.6373C5.9609 14.5919 5.81426 14.5115 5.79074 14.3673C5.63042 14.254 5.5085 14.0769 5.37362 13.9747C5.43554 14.1045 5.60642 14.2267 5.64482 14.357C5.48522 14.3529 5.45666 14.1794 5.32442 14.1338C5.39858 14.0539 5.1929 13.9132 5.11706 13.8395C4.93802 13.7423 4.84538 13.5539 4.8401 13.3886C4.83338 13.2187 4.8881 13.0144 4.64978 12.9223C4.64882 12.7701 4.48298 12.6436 4.40738 12.4955C4.29914 12.3923 4.18082 12.3268 4.02074 12.2543C3.90434 12.2344 3.67874 12.1473 3.62186 12.1559C3.72578 12.2097 3.42362 12.2841 3.38186 12.2555C3.42674 12.1243 3.35978 12.1703 3.31658 12.2659C3.31778 12.3417 3.23402 12.3931 3.3641 12.3124C3.4757 12.3508 3.2345 12.5363 3.23786 12.4732C3.28106 12.2757 3.07034 12.5339 2.96834 12.5452C2.94794 12.6117 2.54978 12.6707 2.7869 12.551C2.87858 12.5253 3.14282 12.3681 3.0437 12.3311C2.97794 12.2995 2.8013 12.3422 2.83994 12.2342C2.66546 12.2323 2.5685 11.9846 2.76794 11.9246C2.8925 11.9114 2.95034 11.783 2.79914 11.8276C2.6069 11.8569 2.6153 11.6452 2.70218 11.5852C2.7737 11.555 2.85938 11.7081 2.84738 11.5699C2.68538 11.5137 2.54834 11.3263 2.7677 11.2771C2.85986 11.1355 3.10346 10.9715 3.3041 11.0697C3.4817 11.1489 3.7049 11.1616 3.90818 11.1993C4.08818 11.2617 4.26098 11.3726 4.42898 11.2187C4.52258 11.1789 4.62938 11.1583 4.6841 11.1453C4.73978 11.2216 4.76306 11.3143 4.80482 11.1803C4.89602 11.2257 5.12234 11.2679 5.27834 11.3145C5.42234 11.3063 5.38922 11.4244 5.37674 11.4441C5.5625 11.4309 5.67602 11.4395 5.83898 11.3853C5.93594 11.4119 6.23738 11.5027 6.16058 11.3517C6.10778 11.3495 6.2237 11.1333 6.2741 11.2329C6.3437 11.3246 6.47906 11.3229 6.32786 11.2226C6.26666 11.0488 6.39194 10.8703 6.35594 10.6874C6.36626 10.6552 6.40226 10.6281 6.44642 10.6267C6.47858 10.622 6.5061 10.6211 6.52898 10.624ZM6.29642 10.6751C6.22994 10.7932 6.40922 10.9094 6.27482 11.014C6.1445 11.1167 6.09362 10.9067 5.99546 10.871C5.92802 10.7318 6.18866 10.9087 6.07562 10.7805C5.95658 10.6495 6.20042 10.6811 6.29642 10.6751ZM17.1528 10.7157C17.0602 10.7311 17.046 10.8587 17.1972 10.7169C17.1826 10.7137 17.1676 10.7134 17.1528 10.7157ZM20.9571 10.997C21.2547 11.0757 20.7053 11.1842 20.8779 11.0205L20.9163 11.0013L20.9571 10.997ZM15.2515 11.0651C15.2371 11.1283 15.2055 11.3942 15.3187 11.3359C15.1951 11.2823 15.3259 11.1415 15.2515 11.0651ZM15.768 11.0791C15.8107 11.1511 15.7078 11.1779 15.768 11.0791ZM13.9872 11.2463C14.2042 11.2948 13.8507 11.4547 13.9236 11.2915C13.9414 11.2754 13.9567 11.2504 13.9872 11.2463ZM7.39994 11.3923C7.57538 11.4657 7.25954 11.6035 7.32074 11.4391C7.32626 11.4119 7.36058 11.3834 7.39994 11.3923ZM15.2851 11.4076C15.2208 11.4695 15.1937 11.6344 15.2871 11.4803C15.2947 11.4609 15.3324 11.4136 15.2851 11.4076ZM15.1764 11.5699C15.2359 11.6193 14.9616 11.5891 15.1764 11.5699ZM10.2048 11.5797C10.303 11.7371 10.5377 11.4971 10.6479 11.6411C10.7945 11.777 10.4501 11.9699 10.3011 11.8787C10.1676 11.8999 10.1967 11.8403 10.1931 11.7731C10.0503 11.8048 10.3047 11.6507 10.1079 11.7045C10.0591 11.668 10.1551 11.5917 10.2048 11.5797ZM5.03042 11.6051C4.96322 11.62 5.09186 11.6877 4.9661 11.717C4.93298 11.777 5.11898 11.6498 5.16818 11.645C5.12666 11.6258 5.06738 11.6392 5.03042 11.6051ZM21.3653 11.8655C21.3965 11.9704 21.2998 11.8886 21.3653 11.8655ZM7.27562 11.8787C7.46978 11.9695 7.13258 11.9296 7.27562 11.8787ZM7.06106 11.9378C7.17146 11.9867 6.84746 12.089 6.9953 11.9608L7.02914 11.9421L7.06106 11.9378ZM7.19306 11.9918C7.3193 12.0331 7.07714 12.1387 7.16546 12.0007L7.19306 11.9918ZM5.42594 12.0443C5.33282 12.0451 5.26082 12.178 5.39378 12.0887C5.39066 12.0818 5.44562 12.0599 5.42594 12.0443ZM13.0174 12.0859C12.9483 12.1799 13.2139 12.1751 13.0438 12.0921L13.0174 12.0859ZM2.6549 12.1651C2.72954 12.1989 2.61746 12.262 2.6549 12.1651ZM12.6053 12.3395C12.7383 12.3808 12.5741 12.4653 12.6053 12.3395ZM12.3795 12.3494C12.4956 12.3981 12.2484 12.5027 12.3435 12.3667L12.3543 12.3547L12.3795 12.3494ZM20.1847 12.5565C20.3314 12.6043 20.1387 12.6729 20.1598 12.5603L20.1847 12.5565ZM4.41722 12.6321C4.51802 12.6475 4.49786 12.9033 4.40594 12.73C4.39442 12.7041 4.33898 12.6254 4.41722 12.6321ZM2.65514 12.641C2.70842 12.641 2.61674 12.7178 2.65514 12.641ZM6.2177 12.7082C6.20978 12.7358 6.30242 12.8227 6.24314 12.7159L6.2177 12.7082ZM20.5536 12.7262C20.7055 12.7725 20.3731 12.7694 20.5536 12.7262ZM21.2167 12.7639C21.312 12.815 21.1234 12.8075 21.2167 12.7639ZM21.3115 12.7639C21.4075 12.8145 21.2179 12.8078 21.3115 12.7639ZM20.8047 12.7862C20.8363 12.8611 20.6448 12.8219 20.8047 12.7862ZM21.0917 12.8003C21.1911 12.8719 20.8788 12.8145 21.0691 12.8013L21.0917 12.8003ZM6.77738 13.036C6.68234 13.0288 6.54866 13.1673 6.7217 13.096C6.81074 13.0658 6.7949 13.1867 6.90818 13.1135C6.92426 13.0581 6.83042 13.0384 6.77738 13.036ZM14.1041 13.1337C13.7897 13.1505 13.9193 13.3975 14.0585 13.5115C13.8125 13.6219 14.3343 13.7783 14.1987 13.5626C14.1605 13.4553 14.0923 13.3432 14.0331 13.2551C14.1154 13.1975 14.3383 13.21 14.1377 13.1351L14.1041 13.1337ZM13.3498 13.1476C13.5094 13.2189 13.0116 13.2002 13.3498 13.1476ZM19.381 13.1632C19.4129 13.2379 19.2214 13.1987 19.381 13.1632ZM13.0788 13.1728C12.8916 13.1841 12.7999 13.5415 13.0896 13.4128C13.2355 13.3192 13.4537 13.5359 13.5667 13.3965C13.4674 13.277 13.2888 13.2472 13.1383 13.2465C13.0848 13.2297 13.1484 13.1719 13.0788 13.1728ZM14.5714 13.1867C14.3667 13.205 14.5824 13.3955 14.6059 13.2328C14.6078 13.2274 14.6084 13.2217 14.6075 13.216C14.6067 13.2104 14.6044 13.2051 14.601 13.2005C14.5976 13.1959 14.5931 13.1923 14.5879 13.1899C14.5828 13.1875 14.5771 13.1864 14.5714 13.1867ZM6.99866 13.1911C7.01426 13.277 7.1153 13.3869 7.06442 13.2333C7.05242 13.2151 7.02698 13.1915 6.99866 13.1911ZM7.12154 13.1971C7.23002 13.2283 7.07954 13.2489 7.12154 13.1971ZM19.2749 13.1971C19.3493 13.2422 19.0805 13.336 19.2139 13.2271L19.2461 13.2059L19.2749 13.1971ZM12.0888 13.1975C12.0204 13.3511 12.3185 13.3996 12.3864 13.5136C12.3687 13.5691 12.2568 13.4476 12.3106 13.5515C12.3154 13.6783 12.0459 13.7493 12.0631 13.6087C12.3192 13.6211 12.1567 13.4627 12.0238 13.4222C11.9453 13.319 11.8654 13.258 11.725 13.3502C11.5596 13.2964 11.5469 13.4822 11.4243 13.5407C11.4747 13.6855 11.1411 13.6888 11.1715 13.7517C11.4192 13.7392 11.6571 13.6375 11.9167 13.6583C12.079 13.6948 11.8495 13.9099 12.1179 13.8777C12.2331 13.9228 12.4051 14.0654 12.4635 13.9031C12.66 13.8359 12.8626 14.0277 13.0807 13.9471C13.2893 14.0344 13.3733 13.6159 13.1143 13.7282C12.9535 13.7455 12.7567 13.6869 12.7704 13.5549C12.7752 13.3917 12.5681 13.5604 12.6631 13.6391C12.5316 13.841 12.4279 13.4867 12.3646 13.402C12.2657 13.3291 12.1546 13.2698 12.0888 13.1975ZM6.86882 13.2057C6.72722 13.2242 6.83594 13.5158 6.82202 13.3149C6.81122 13.2746 6.87146 13.2374 6.86882 13.2057ZM11.8755 13.3514C11.9868 13.3979 11.8678 13.7027 11.8231 13.5127C11.8301 13.4603 11.8243 13.3915 11.8755 13.3514ZM14.2015 13.4301C14.3153 13.4524 14.1631 13.4858 14.2015 13.4301ZM11.5755 13.5079C11.6645 13.601 11.406 13.5355 11.5755 13.5079ZM13.992 14.0474C13.8888 14.1218 14.1384 14.1916 14.1269 14.2627C14.1718 14.3635 14.4331 14.1568 14.3136 14.189C14.1547 14.2204 14.0928 14.1016 13.992 14.0474ZM10.6591 14.0822C10.7383 14.1254 10.5723 14.1494 10.6591 14.0822ZM10.5317 14.0896C10.729 14.1165 10.4628 14.1914 10.5115 14.0995L10.5317 14.0896ZM13.2166 14.1424C13.2367 14.2807 13.3831 14.4299 13.4383 14.5706C13.459 14.6287 13.6131 14.7736 13.6423 14.7379C13.6179 14.5696 13.4391 14.4616 13.3711 14.3123C13.3183 14.2571 13.3032 14.177 13.2166 14.1427M7.26362 14.1657C7.36754 14.1808 7.34522 14.2605 7.26218 14.1957C7.2017 14.2099 7.23098 14.1607 7.26362 14.1657ZM17.8414 14.2384C17.9343 14.3152 17.7432 14.5312 17.7559 14.32C17.7655 14.2852 17.8003 14.2538 17.8414 14.2384ZM7.27154 14.2413C7.41818 14.3087 7.17674 14.3421 7.27154 14.2413ZM7.06034 14.3301C7.23842 14.3579 7.56842 14.4165 7.5617 14.5732C7.46906 14.6097 7.34954 14.5531 7.46834 14.5156C7.3037 14.5084 7.15154 14.3678 7.00994 14.4256C6.8297 14.4364 6.94394 14.3462 7.06034 14.3301ZM7.49234 14.3459C7.62986 14.4055 7.3565 14.4052 7.49234 14.3459ZM2.99642 14.3836C3.09194 14.4338 2.90402 14.4283 2.99642 14.3836ZM3.0569 14.4028C3.18122 14.3915 3.33146 14.6078 3.16298 14.5072C3.16442 14.4583 3.00338 14.4424 3.0569 14.4028ZM7.53458 14.4196C7.60826 14.4563 7.43522 14.4767 7.53458 14.4196ZM7.65314 14.4777C7.77338 14.4741 7.89122 14.5979 7.69202 14.5775C7.58666 14.6671 7.55762 14.4705 7.65314 14.4777ZM7.31234 14.5367C7.55642 14.609 7.11002 14.5883 7.31234 14.5367ZM7.8893 14.5377C8.08226 14.6126 7.68338 14.5883 7.8893 14.5377ZM17.8013 14.5396C18.0396 14.5451 17.7358 14.7458 17.953 14.7403C18.0711 14.8423 17.9023 14.8003 17.8488 14.8027C18.0096 14.8202 17.8879 15.0451 18.0612 14.9258C18.2136 14.993 18.0375 15.2111 17.953 15.0477C17.7413 15.0856 17.9796 14.9661 17.8582 14.9044C17.7895 14.7842 17.6967 14.6606 17.8015 14.5396M17.7394 14.8547C17.8167 14.9459 17.4725 15.0791 17.6611 14.9152C17.6851 14.8936 17.7063 14.8684 17.7394 14.8547ZM20.2337 14.8547C20.3201 14.9008 20.1175 14.8917 20.2337 14.8547ZM20.2452 14.9325C20.4019 15.0052 20.1507 14.9942 20.2452 14.9325ZM20.4576 14.9582C20.5375 15.0285 20.3748 14.9877 20.4576 14.9582ZM17.5884 15.0235C17.6307 15.0597 17.7307 15.0955 17.7403 15.1322C17.5824 15.1951 17.7907 15.3088 17.6278 15.3741C17.6263 15.5546 17.1972 15.5373 17.2003 15.3698C17.0995 15.2023 17.4461 15.2073 17.5315 15.089C17.5531 15.0683 17.5695 15.0453 17.5884 15.0235ZM17.8234 15.0806C17.9158 15.1334 17.7641 15.1204 17.8234 15.0806ZM16.5 15.1087C16.7268 15.1552 16.8511 15.3343 17.0513 15.3885C17.0739 15.4507 17.2536 15.4715 17.0691 15.4636C16.9527 15.6369 17.3446 15.5663 17.4463 15.6453C17.5798 15.7742 17.1852 15.6597 17.0887 15.658C16.9207 15.6011 16.788 15.4831 16.6913 15.3652C16.6618 15.2896 16.578 15.2527 16.4952 15.214C16.4599 15.1915 16.4057 15.0928 16.5 15.1087ZM18.1721 15.2385C18.3535 15.2937 18.1217 15.4473 18.1368 15.2846C18.1411 15.2711 18.1459 15.2414 18.1721 15.2385ZM18.0221 15.2606C18.1493 15.3328 17.6623 15.3513 17.8623 15.3638C18.0511 15.3429 17.8195 15.4365 17.9055 15.5203C17.8337 15.5872 17.7919 15.4555 17.7924 15.5788C17.6395 15.5745 17.6794 15.2793 17.8332 15.274C17.8971 15.2855 17.9628 15.2841 18.0221 15.2606ZM13.1415 15.3441C13.2651 15.4012 12.9567 15.4514 13.1415 15.3441ZM18.4551 15.3489C18.5429 15.3561 18.5323 15.5133 18.6221 15.4247C18.6783 15.3647 18.7541 15.4003 18.8263 15.419C19.0241 15.4334 19.1503 15.6148 19.3539 15.5443C19.4211 15.4547 19.6099 15.4826 19.477 15.5738C19.3812 15.6122 19.1187 15.5906 19.3191 15.7046C19.5399 15.8486 19.1518 15.7663 19.1007 15.682C19.0068 15.658 18.9135 15.8035 18.8062 15.6947C18.637 15.7288 18.7205 15.6604 18.7078 15.5863C18.6 15.539 18.2364 15.4744 18.3768 15.359L18.4111 15.3556C18.425 15.3499 18.4401 15.3478 18.4551 15.3489ZM19.1897 15.4005C19.2785 15.437 19.0735 15.4411 19.1897 15.4005ZM19.3663 15.4192C19.4619 15.4696 19.2739 15.4639 19.3663 15.4192ZM18.2395 15.4442C18.5703 15.4823 17.9434 15.5584 18.1063 15.4576C18.1502 15.449 18.1948 15.4445 18.2395 15.4442ZM19.5939 15.5553C19.7374 15.5937 19.7431 15.6907 19.8852 15.6753C20.0477 15.7442 19.8125 15.7893 19.8127 15.6892C19.7134 15.7067 19.6483 15.6098 19.5857 15.5683L19.5939 15.5553ZM18.1157 15.6532C18.2748 15.7391 17.7677 15.8236 18.0123 15.6967C18.0415 15.6765 18.0727 15.6518 18.1157 15.6532ZM17.8517 15.6719C17.9242 15.6794 17.9623 15.7079 17.8303 15.7127C17.7375 15.7399 17.467 15.6979 17.6962 15.6748L17.7319 15.6734L17.7737 15.6729C17.8001 15.6691 17.8275 15.6693 17.8517 15.6719ZM18.9667 15.7694C19.0553 15.8971 19.122 16.0331 19.2243 16.1471C19.3675 16.258 19.5507 16.3919 19.5382 16.5616C19.5543 16.7335 19.4004 16.8832 19.3414 17.0363C19.1849 17.1227 18.8825 17.1362 18.7925 16.9759C18.7027 16.8969 18.5326 16.8967 18.4788 16.7795C18.3079 16.6891 18.0799 16.7661 17.9244 16.8331C17.7516 16.8859 17.4456 16.9595 17.502 16.7205C17.4828 16.57 17.3614 16.4311 17.4243 16.2748C17.5459 16.168 17.8534 16.2028 17.9115 16.0163C18.0106 15.9794 18.1186 15.8541 18.229 15.9429C18.325 15.7924 18.4683 15.7792 18.6646 15.8397C18.5662 15.9458 18.7315 16.0653 18.8604 16.0442C18.9199 15.9602 18.8422 15.8203 18.9667 15.7694ZM13.6728 15.8054C13.7607 15.8078 13.6167 15.9165 13.6728 15.8054ZM13.9699 15.8347C14.1619 15.9455 13.9555 16.1457 13.939 16.2887C13.9399 16.474 13.6119 16.4687 13.6615 16.277C13.7134 16.1457 13.668 15.989 13.8799 15.9331C13.9078 15.898 13.9222 15.8512 13.9699 15.8347ZM13.7477 15.8373C13.8759 15.8963 13.6661 15.8757 13.7477 15.8373ZM20.0703 16.1726C20.1622 16.1815 20.3391 16.3665 20.1439 16.2734C20.1223 16.2551 20.016 16.193 20.0703 16.1726ZM14.3131 16.21C14.4087 16.2595 14.2219 16.2561 14.3131 16.21ZM18.6559 16.8508C18.7155 16.8916 18.5628 16.9027 18.6559 16.8508ZM20.5507 16.8573C20.6847 16.895 20.6839 17.0553 20.8469 17.0167C20.8368 17.1391 20.6933 17.2099 20.5973 17.3042C20.5095 17.3959 20.4214 17.5701 20.2452 17.5742C20.2476 17.4981 20.1387 17.4484 20.2887 17.3774C20.4159 17.3051 20.5003 17.1645 20.6403 17.1652C20.5342 17.098 20.6703 16.978 20.5414 16.8921C20.5416 16.8887 20.5198 16.8472 20.5507 16.8573ZM19.1122 17.1789C19.1297 17.1766 19.1475 17.1768 19.165 17.1794C19.4386 17.1626 19.1112 17.5149 19.0752 17.2595C19.0395 17.2142 19.0651 17.1856 19.1122 17.1789ZM8.39138 18.7531C8.45642 18.8126 8.24522 18.9263 8.25962 19.0339C8.19098 19.2659 8.23874 19.5086 8.25482 19.744C8.26706 19.8381 8.3285 19.9185 8.22122 19.9737C8.23466 20.0258 8.22842 20.0875 8.24426 20.1302H6.02378C6.03218 20.0779 6.01226 19.9958 6.03914 19.955C5.88482 19.9423 5.93114 19.6751 6.15722 19.72C6.27578 19.7157 6.37034 19.6893 6.40754 19.8011C6.64178 19.7692 6.86882 19.8079 7.09754 19.8439C7.2545 19.8655 7.32506 19.7303 7.46282 19.8405C7.53818 19.8585 7.6121 19.9485 7.57706 19.8309C7.48058 19.7411 7.38626 19.6475 7.49282 19.5967C7.3613 19.5775 7.49978 19.5184 7.47602 19.4455C7.5797 19.3907 7.69442 19.2859 7.78706 19.3773C7.92434 19.2844 7.78058 19.1239 7.94546 19.0375C8.06093 18.8986 8.21679 18.7992 8.39138 18.7531ZM18.5964 18.9218C18.5597 19.0958 18.8705 19.067 19.0217 19.1027C19.1746 19.1162 19.2029 19.2962 19.4127 19.2616C19.5701 19.2571 19.6551 19.3495 19.7866 19.361C19.915 19.4798 20.0405 19.5659 20.2459 19.5563C20.3895 19.619 20.4895 19.6888 20.4051 19.8184C20.2995 19.9048 20.2462 20.0527 20.1401 20.1302H10.0985C10.2365 20.0279 10.3692 19.9339 10.4561 19.7959C10.6803 19.7687 10.7722 19.6089 10.9503 19.5311C11.1099 19.5081 11.3775 19.504 11.3707 19.3391C11.4831 19.354 11.5071 19.5016 11.6746 19.4575C11.8673 19.4666 12.0694 19.4659 12.2153 19.3826C12.3833 19.4551 12.6574 19.5165 12.8511 19.45C12.9576 19.4251 13.0263 19.3334 13.1482 19.36C13.1731 19.1906 13.4703 19.5743 13.5255 19.3235C13.6613 19.2196 13.8468 19.1774 13.9966 19.1145C14.0803 19.0624 14.2942 18.9345 14.4363 19.0742C14.5495 19.2191 14.8599 19.1719 15.0583 19.2095C15.1495 19.2323 15.1606 19.3233 15.2695 19.2676C15.367 19.3718 15.5117 19.4174 15.5491 19.27C15.6946 19.2244 15.7711 19.1409 15.6987 19.0245C15.775 18.9515 15.913 19.1339 16.0366 19.024C16.147 19.1078 16.4837 19.1164 16.4595 18.9326C16.5833 18.9047 16.6493 19.0382 16.7712 18.9489C16.8447 18.9863 16.9575 18.8839 17.0103 19.0034C17.1639 19.2071 17.3777 18.8625 17.5133 19.0483C17.6155 19.0713 17.8356 19.1656 17.8056 18.9962C17.8656 18.9695 17.9129 19.0951 18.0072 19.0329C18.1474 19.0276 18.2436 19.1944 18.2914 19.0118C18.4373 19.0454 18.5218 18.9789 18.5964 18.9218ZM4.85978 19.9101C4.88138 19.9133 4.9053 19.9211 4.93154 19.9336C5.08538 19.9768 5.24546 20.0203 5.4101 20.0032C5.4989 20.0248 5.6861 20.1136 5.7161 20.1172C5.7377 20.0006 5.8985 20.0363 5.9093 20.1299H4.19642C4.35746 20.0752 4.53074 20.0385 4.69322 19.9819C4.74626 19.9291 4.7945 19.9003 4.85978 19.9101Z" fill="#E4F8FF"/>
</svg>
