<svg width="30" height="24" viewBox="0 0 30 24" fill="none" xmlns="http://www.w3.org/2000/svg">
<path d="M22.8751 8.99996H15.7501V11.625C15.7501 13.4859 14.236 15 12.3751 15C10.5142 15 9.00009 13.4859 9.00009 11.625V5.92496L5.9579 7.75309C5.05322 8.29215 4.50009 9.27184 4.50009 10.3218V12.539L0.750093 14.7047C0.0329051 15.1172 -0.215532 16.0359 0.201655 16.7531L3.95166 23.25C4.36416 23.9671 5.28291 24.2109 6.00009 23.7984L10.847 21H17.2501C18.9048 21 20.2501 19.6546 20.2501 18H21.0001C21.8298 18 22.5001 17.3296 22.5001 16.5V13.5H22.8751C23.4985 13.5 24.0001 12.9984 24.0001 12.375V10.125C24.0001 9.50152 23.4985 8.99996 22.8751 8.99996ZM29.7985 7.24684L26.0485 0.749963C25.636 0.032775 24.7173 -0.210975 24.0001 0.201525L19.1532 2.99996H14.3626C13.8001 2.99996 13.2517 3.15934 12.7735 3.45465L11.2032 4.43434C10.7626 4.70621 10.5001 5.18903 10.5001 5.70465V11.625C10.5001 12.6609 11.3392 13.5 12.3751 13.5C13.411 13.5 14.2501 12.6609 14.2501 11.625V7.49996H22.8751C24.3235 7.49996 25.5001 8.67652 25.5001 10.125V11.4609L29.2501 9.29527C29.9673 8.87809 30.211 7.96403 29.7985 7.24684Z" fill="#E4F8FF"/>
</svg>
