<svg width="24" height="24" viewBox="0 0 24 24" fill="none" xmlns="http://www.w3.org/2000/svg">
<path fill-rule="evenodd" clip-rule="evenodd" d="M2.12276 12.8159C2.40976 13.8189 3.18276 14.5909 4.72776 16.1359L6.55776 17.9659C9.24776 20.6569 10.5918 21.9999 12.2618 21.9999C13.9328 21.9999 15.2768 20.6559 17.9658 17.9669C20.6558 15.2769 21.9998 13.9329 21.9998 12.2619C21.9998 10.5919 20.6558 9.24687 17.9668 6.55787L16.1368 4.72787C14.5908 3.18287 13.8188 2.40987 12.8158 2.12287C11.8128 1.83487 10.7478 2.08087 8.61876 2.57287L7.39076 2.85587C5.59876 3.26887 4.70276 3.47587 4.08876 4.08887C3.47476 4.70187 3.26976 5.59987 2.85576 7.39087L2.57176 8.61887C2.08076 10.7489 1.83576 11.8129 2.12276 12.8159ZM10.1218 7.27087C10.3146 7.45687 10.4685 7.67944 10.5744 7.92558C10.6803 8.17172 10.7361 8.4365 10.7385 8.70444C10.741 8.97238 10.69 9.23812 10.5886 9.48614C10.4871 9.73416 10.3373 9.95948 10.1478 10.149C9.95837 10.3384 9.73305 10.4882 9.48503 10.5897C9.23701 10.6911 8.97127 10.7421 8.70333 10.7396C8.43539 10.7372 8.17061 10.6814 7.92447 10.5755C7.67834 10.4696 7.45576 10.3157 7.26976 10.1229C6.90281 9.74237 6.6999 9.23303 6.7047 8.70444C6.70949 8.17585 6.9216 7.67027 7.29538 7.29649C7.66916 6.9227 8.17474 6.7106 8.70333 6.7058C9.23192 6.70101 9.74126 6.90392 10.1218 7.27087ZM19.0498 12.0509L12.0708 19.0309C11.9292 19.1674 11.7398 19.2429 11.5431 19.2411C11.3465 19.2393 11.1584 19.1604 11.0194 19.0212C10.8804 18.8821 10.8016 18.694 10.8 18.4973C10.7984 18.3007 10.8741 18.1113 11.0108 17.9699L17.9888 10.9899C18.1295 10.8492 18.3203 10.7701 18.5193 10.7701C18.7182 10.7701 18.9091 10.8492 19.0498 10.9899C19.1905 11.1306 19.2695 11.3214 19.2695 11.5204C19.2695 11.7193 19.1905 11.9102 19.0498 12.0509Z" fill="#E4F8FF"/>
</svg>
