<svg width="24" height="24" viewBox="0 0 24 24" fill="none" xmlns="http://www.w3.org/2000/svg">
<path d="M6.22199 4.60103C6.66457 4.30541 7.13121 4.0475 7.61699 3.83003C8.98899 3.21503 9.67499 2.90803 10.587 3.50003C11.5 4.09003 11.5 5.06003 11.5 7.00003V8.50003C11.5 10.386 11.5 11.328 12.086 11.914C12.672 12.5 13.614 12.5 15.5 12.5H17C18.94 12.5 19.91 12.5 20.5 13.412C21.092 14.325 20.785 15.011 20.17 16.382C19.2906 18.3457 17.7708 19.9527 15.8591 20.9401C13.9475 21.9274 11.7573 22.2366 9.64699 21.817C7.80425 21.4505 6.11158 20.5457 4.78302 19.2172C3.45447 17.8886 2.54969 16.196 2.18309 14.3532C1.81649 12.5105 2.00453 10.6004 2.72345 8.86456C3.44236 7.12869 4.65986 5.64498 6.22199 4.60103Z" fill="#E4F8FF"/>
<path d="M21.446 7.06883C21.0422 6.04749 20.4332 5.11985 19.6566 4.34326C18.88 3.56667 17.9523 2.95764 16.931 2.55383C15.389 1.94683 14 3.34383 14 4.99983V8.99983C14 9.26504 14.1054 9.5194 14.2929 9.70693C14.4804 9.89447 14.7348 9.99983 15 9.99983H19C20.657 9.99983 22.053 8.60983 21.446 7.06883Z" fill="#E4F8FF"/>
</svg>
