<svg width="24" height="24" viewBox="0 0 24 24" fill="none" xmlns="http://www.w3.org/2000/svg">
<path d="M14.2169 3.49996C13.5241 3.1711 12.7668 3.00049 11.9999 3.00049C11.233 3.00049 10.4757 3.1711 9.78293 3.49996L3.09193 6.63696C2.01593 7.14096 1.73493 8.56396 2.24993 9.54696V14.5C2.24993 14.6989 2.32895 14.8896 2.4696 15.0303C2.61025 15.1709 2.80102 15.25 2.99993 15.25C3.19884 15.25 3.38961 15.1709 3.53026 15.0303C3.67091 14.8896 3.74993 14.6989 3.74993 14.5V10.672L9.78293 13.5C10.4757 13.8288 11.233 13.9994 11.9999 13.9994C12.7668 13.9994 13.5241 13.8288 14.2169 13.5L20.9079 10.363C22.3639 9.68096 22.3639 7.31896 20.9079 6.63696L14.2169 3.49996Z" fill="#E4F8FF"/>
<path d="M5 12.915V16.625C5 17.633 5.503 18.577 6.385 19.065C7.854 19.88 10.204 21 12 21C13.796 21 16.146 19.879 17.615 19.066C18.497 18.577 19 17.633 19 16.626V12.915L14.854 14.859C13.9618 15.2814 12.9871 15.5005 12 15.5005C11.0129 15.5005 10.0382 15.2814 9.146 14.859L5 12.915Z" fill="#E4F8FF"/>
</svg>
