<svg width="24" height="24" viewBox="0 0 24 24" fill="none" xmlns="http://www.w3.org/2000/svg">
<path d="M2 16.1438V4.99776C2 3.89976 2.886 3.00776 3.982 3.07476C4.959 3.13476 6.113 3.25376 7 3.48676C8.05 3.76376 9.296 4.35376 10.282 4.87476C10.589 5.03776 10.916 5.14976 11.25 5.21376V20.3928C10.9438 20.3258 10.6483 20.2167 10.372 20.0688C9.372 19.5368 8.082 18.9188 7 18.6328C6.123 18.4018 4.984 18.2828 4.015 18.2228C2.906 18.1528 2 17.2558 2 16.1438ZM12.75 20.3928C13.0562 20.3258 13.3517 20.2167 13.628 20.0688C14.628 19.5368 15.918 18.9188 17 18.6328C17.877 18.4018 19.016 18.2828 19.985 18.2228C21.094 18.1528 22 17.2548 22 16.1428V4.93376C22 3.86176 21.154 2.98076 20.082 3.01876C18.953 3.05876 17.547 3.17476 16.5 3.48876C15.592 3.75976 14.535 4.30476 13.674 4.80376C13.3852 4.97048 13.0741 5.09508 12.75 5.17376V20.3928Z" fill="#E4F8FF"/>
</svg>
