<svg width="24" height="24" viewBox="0 0 24 24" fill="none" xmlns="http://www.w3.org/2000/svg">
<path fill-rule="evenodd" clip-rule="evenodd" d="M21.2161 3.3044C20.8821 1.7184 19.4701 0.673398 17.8631 0.754398C16.3326 0.831398 13.9481 1.0094 10.5976 1.4164C7.24758 1.8229 4.89008 2.2209 3.38608 2.5119C1.80558 2.8184 0.689077 4.1729 0.752577 5.7929C0.774077 6.3449 0.810577 7.0084 0.868577 7.7884C1.31708 6.0649 2.82058 4.8509 4.60108 4.7279C6.16458 4.6194 8.74258 4.4999 12.5001 4.4999C16.2576 4.4999 18.8356 4.6199 20.3991 4.7279C20.788 4.75459 21.1715 4.83468 21.5386 4.9659C21.4232 4.3259 21.3157 3.77206 21.2161 3.3044ZM12.5001 23.2499C8.76908 23.2499 6.22008 23.1309 4.68708 23.0249C3.27708 22.9274 2.13708 21.8719 1.99708 20.4379C1.87358 19.1754 1.75008 17.2294 1.75008 14.4999C1.75008 11.7704 1.87358 9.8244 1.99708 8.5619C2.13708 7.1279 3.27708 6.0719 4.68708 5.9749C6.21958 5.8689 8.76908 5.7499 12.5001 5.7499C16.2311 5.7499 18.7801 5.8689 20.3131 5.9749C21.7231 6.0724 22.8631 7.1279 23.0031 8.5619C23.1266 9.8244 23.2501 11.7704 23.2501 14.4999C23.2501 17.2294 23.1266 19.1754 23.0031 20.4379C22.8631 21.8719 21.7231 22.9279 20.3131 23.0249C18.7806 23.1309 16.2311 23.2499 12.5001 23.2499ZM5.50008 9.2499C5.30116 9.2499 5.1104 9.32892 4.96975 9.46957C4.82909 9.61022 4.75008 9.80099 4.75008 9.9999C4.75008 10.1988 4.82909 10.3896 4.96975 10.5302C5.1104 10.6709 5.30116 10.7499 5.50008 10.7499H9.50008C9.69899 10.7499 9.88975 10.6709 10.0304 10.5302C10.1711 10.3896 10.2501 10.1988 10.2501 9.9999C10.2501 9.80099 10.1711 9.61022 10.0304 9.46957C9.88975 9.32892 9.69899 9.2499 9.50008 9.2499H5.50008ZM5.50008 15.2499C5.30116 15.2499 5.1104 15.3289 4.96975 15.4696C4.82909 15.6102 4.75008 15.801 4.75008 15.9999C4.75008 16.1988 4.82909 16.3896 4.96975 16.5302C5.1104 16.6709 5.30116 16.7499 5.50008 16.7499H9.50008C9.69899 16.7499 9.88975 16.6709 10.0304 16.5302C10.1711 16.3896 10.2501 16.1988 10.2501 15.9999C10.2501 15.801 10.1711 15.6102 10.0304 15.4696C9.88975 15.3289 9.69899 15.2499 9.50008 15.2499H5.50008ZM4.75008 18.9999C4.75008 18.801 4.82909 18.6102 4.96975 18.4696C5.1104 18.3289 5.30116 18.2499 5.50008 18.2499H19.5001C19.699 18.2499 19.8898 18.3289 20.0304 18.4696C20.1711 18.6102 20.2501 18.801 20.2501 18.9999C20.2501 19.1988 20.1711 19.3896 20.0304 19.5302C19.8898 19.6709 19.699 19.7499 19.5001 19.7499H5.50008C5.30116 19.7499 5.1104 19.6709 4.96975 19.5302C4.82909 19.3896 4.75008 19.1988 4.75008 18.9999ZM5.50008 12.2499C5.30116 12.2499 5.1104 12.3289 4.96975 12.4696C4.82909 12.6102 4.75008 12.801 4.75008 12.9999C4.75008 13.1988 4.82909 13.3896 4.96975 13.5302C5.1104 13.6709 5.30116 13.7499 5.50008 13.7499H9.50008C9.69899 13.7499 9.88975 13.6709 10.0304 13.5302C10.1711 13.3896 10.2501 13.1988 10.2501 12.9999C10.2501 12.801 10.1711 12.6102 10.0304 12.4696C9.88975 12.3289 9.69899 12.2499 9.50008 12.2499H5.50008ZM16.0001 16.7499C15.0101 16.7499 14.2566 16.7199 13.7161 16.6849C13.3508 16.6653 13.0057 16.5115 12.747 16.2528C12.4883 15.9942 12.3343 15.6492 12.3146 15.2839C12.2689 14.5234 12.2474 13.7617 12.2501 12.9999C12.2501 12.0099 12.2801 11.2564 12.3151 10.7159C12.3346 10.3506 12.4885 10.0055 12.7471 9.74679C13.0057 9.4881 13.3508 9.3341 13.7161 9.3144C14.2566 9.2794 15.0096 9.2499 16.0001 9.2499C16.9906 9.2499 17.7436 9.2799 18.2841 9.3149C18.6493 9.33447 18.9945 9.48834 19.2532 9.74695C19.5119 10.0056 19.6659 10.3506 19.6856 10.7159C19.7206 11.2564 19.7501 12.0094 19.7501 12.9999C19.7501 13.9904 19.7201 14.7434 19.6851 15.2839C19.6655 15.6492 19.5116 15.9943 19.253 16.253C18.9944 16.5117 18.6493 16.6657 18.2841 16.6854C17.7436 16.7204 16.9906 16.7499 16.0001 16.7499Z" fill="#E4F8FF"/>
</svg>
